<svg width="273" height="63" viewBox="0 0 273 63" fill="none" xmlns="http://www.w3.org/2000/svg">
<path d="M270.82 15.8949L56.0358 15.8949V59.5867L270.82 46.6918V15.8949Z" fill="#44829B" stroke="#325C6D" stroke-width="3"/>
<path d="M270.82 16.226L56.0358 16.226L62.3636 46.0158L266.3 38.0859L270.82 16.226Z" fill="#44829B" stroke="#325C6D" stroke-width="3"/>
<path d="M180.061 1L1.79736 1L56.0358 15.8949L270.82 15.8949L180.061 1Z" fill="#9ED4E9" stroke="#325C6D" stroke-width="3"/>
<path d="M56.0356 15.8473L1.79725 1V30.1278L56.0356 59.5867V15.8473Z" fill="#52A3C4" stroke="#325C6D" stroke-width="3"/>
<line y1="-0.5" x2="9.5185" y2="-0.5" transform="matrix(0.227928 0.973678 -0.786734 0.617292 11.5601 12.916)" stroke="#325C6D"/>
<line y1="-0.5" x2="6.64438" y2="-0.5" transform="matrix(0.744331 -0.667811 0.258571 0.965992 114.31 34.9944)" stroke="#325C6D"/>
<line y1="-0.5" x2="5.54818" y2="-0.5" transform="matrix(-0.989714 -0.143063 0.0430865 -0.999071 179.404 8.41357)" stroke="#325C6D"/>
<line y1="-0.5" x2="9.64447" y2="-0.5" transform="matrix(-0.198921 -0.980016 0.826803 -0.562492 259.065 32.4384)" stroke="#325C6D"/>
</svg>
