<svg width="200" height="68" viewBox="0 0 200 68" fill="none" xmlns="http://www.w3.org/2000/svg">
<g filter="url(#filter0_d)">
<rect x="8.5332" width="183.467" height="60.6512" rx="20" fill="#D980AC"/>
<rect x="9.0332" y="0.5" width="182.467" height="59.6512" rx="19.5" stroke="black"/>
</g>
<line x1="191.329" y1="27.6237" x2="199.329" y2="34.6237" stroke="black"/>
<line x1="191.329" y1="40.6237" x2="199.329" y2="47.6237" stroke="black"/>
<line x1="187.329" y1="52.6237" x2="195.329" y2="59.6237" stroke="black"/>
<line x1="177.329" y1="59.6237" x2="185.329" y2="66.6237" stroke="black"/>
<line x1="191.329" y1="14.6237" x2="199.329" y2="21.6237" stroke="black"/>
<line x1="159.329" y1="60.6237" x2="167.329" y2="67.6237" stroke="black"/>
<line x1="141.329" y1="60.6237" x2="149.329" y2="67.6237" stroke="black"/>
<line x1="123.329" y1="60.6237" x2="131.329" y2="67.6237" stroke="black"/>
<line x1="105.329" y1="60.6237" x2="113.329" y2="67.6237" stroke="black"/>
<line x1="88.3293" y1="60.6237" x2="96.3293" y2="67.6237" stroke="black"/>
<line x1="70.3293" y1="60.6237" x2="78.3293" y2="67.6237" stroke="black"/>
<line x1="52.3293" y1="60.6237" x2="60.3293" y2="67.6237" stroke="black"/>
<line x1="34.3293" y1="60.6237" x2="42.3293" y2="67.6237" stroke="black"/>
<line y1="-0.5" x2="8.75554" y2="-0.5" transform="matrix(-0.372468 -0.928045 0.596585 -0.80255 32.2612 18.1255)" stroke="#325C6D"/>
<line y1="-0.5" x2="8.75554" y2="-0.5" transform="matrix(-0.92696 0.375161 -0.804278 -0.594253 144.689 12.4204)" stroke="#325C6D"/>
<line y1="-0.5" x2="8.75554" y2="-0.5" transform="matrix(-0.575676 0.817678 -0.997982 -0.0634982 70.0403 32)" stroke="#325C6D"/>
<line y1="-0.5" x2="8.75554" y2="-0.5" transform="matrix(-0.759734 -0.650234 0.157346 -0.987544 169.652 46.6931)" stroke="#325C6D"/>
<defs>
<filter id="filter0_d" x="8.5332" y="0" width="190.467" height="67.6512" filterUnits="userSpaceOnUse" color-interpolation-filters="sRGB">
<feFlood flood-opacity="0" result="BackgroundImageFix"/>
<feColorMatrix in="SourceAlpha" type="matrix" values="0 0 0 0 0 0 0 0 0 0 0 0 0 0 0 0 0 0 127 0"/>
<feOffset dx="7" dy="7"/>
<feColorMatrix type="matrix" values="0 0 0 0 0.891667 0 0 0 0 0.713864 0 0 0 0 0.801767 0 0 0 1 0"/>
<feBlend mode="normal" in2="BackgroundImageFix" result="effect1_dropShadow"/>
<feBlend mode="normal" in="SourceGraphic" in2="effect1_dropShadow" result="shape"/>
</filter>
</defs>
</svg>
