<svg width="274" height="110" viewBox="0 0 274 110" fill="none" xmlns="http://www.w3.org/2000/svg">
<path d="M270 14L148.107 48L148.107 87.5L272.306 37.5758L270 14Z" fill="#91C36A" stroke="#6C8F50" stroke-width="3"/>
<path d="M146.881 18.5068L0.999999 35.9999L147.483 46.9982L271.377 13.2566L146.881 18.5068Z" fill="#CBF2AC" stroke="#6C8F50" stroke-width="3"/>
<path d="M148.272 48.0412L1.99988 36.8375L2.36845 57.4905L148.967 87.0294L148.272 48.0412Z" fill="#B7D79E" stroke="#6C8F50" stroke-width="3"/>
<path d="M148.059 47.2724L2.36144 36.5373L5.07344 49.3655L143.715 71.6235L148.059 47.2724Z" fill="#B7D79E" stroke="#6C8F50" stroke-width="3"/>
<line y1="-0.5" x2="9.46085" y2="-0.5" transform="matrix(0.240387 -0.970677 0.769465 0.638689 224.545 51.1306)" stroke="#325C6D"/>
<line y1="-0.5" x2="8.87887" y2="-0.5" transform="matrix(0.350962 -0.93639 0.622789 0.78239 30 50.3141)" stroke="#325C6D"/>
</svg>
