<svg width="86" height="53" viewBox="0 0 86 53" fill="none" xmlns="http://www.w3.org/2000/svg">
<path d="M29.168 11.912C26.048 16.736 21.92 21.92 17.6 21.2C16.568 21.08 15.44 20.24 14.792 19.304L10.976 22.904C11.648 24.464 14.24 25.76 16.544 25.952C21.608 26.384 25.16 23.288 28.4 18.872C35.84 20.768 41.816 15.368 41.24 9.776C41.024 7.712 40.088 6.08 38.72 4.832C40.232 3.536 41.528 3.008 42.68 3.032L41.792 0.127998C39.944 0.271999 38.024 1.28 36.032 3.104C33.896 2.144 31.328 1.736 28.832 1.832C22.664 2.096 16.352 5.456 15.992 11.216C15.728 15.44 19.088 18.584 23.384 17.456L24.416 12.128C23.648 12.392 22.928 12.464 22.328 12.368C20.624 12.056 20.048 10.376 20.48 8.768C21.224 6.08 24.848 4.52 28.52 4.352C30.368 4.28 32.336 4.568 33.992 5.24C32.456 7.04 30.848 9.272 29.168 11.912ZM37.88 10.496C37.712 12.704 35.672 16.52 30.248 16.16L31.52 14.144C33.464 11.024 35.12 8.696 36.608 6.968C37.472 7.904 37.976 9.08 37.88 10.496ZM44.5366 10.496C45.3526 11.264 46.9846 10.904 48.1126 9.824C49.2406 8.72 49.5046 7.16 48.6166 6.464C47.7766 5.696 46.2166 6.056 45.0646 7.136C43.9366 8.264 43.6726 9.752 44.5366 10.496ZM42.9526 11.96L40.0726 18.608C38.9926 21.152 39.6166 22.952 41.7526 22.952C43.7926 22.952 46.5046 21.2 49.0726 16.904L47.4646 16.664C46.3606 18.2 44.4886 20.216 43.7446 20C43.2406 19.856 43.0726 19.4 44.8726 16.064L47.0566 11.96H42.9526ZM41.7659 27.224C42.7979 28.568 45.6539 29.264 47.9339 28.952C51.9419 28.4 55.4699 24.608 55.9259 21.68C56.1419 20.168 55.2059 19.208 53.9819 18.608C55.8299 17.552 57.7019 15.752 58.8779 14.096L57.2219 11.432C55.9739 11.72 52.3259 12.68 53.5259 11.048L50.8379 9.656C49.8779 10.472 49.5899 11.912 49.7579 12.92C47.7179 16.376 46.6139 17.84 45.9179 18.752L47.0699 19.688C48.1499 18.392 50.1419 15.248 50.7659 14.24C51.9419 14.96 53.1659 15.008 54.3899 14.864C53.1179 16.448 51.1739 17.24 50.3579 17.672L50.3339 17.696L49.2539 19.808C50.3339 20.024 52.9739 20.72 53.1179 22.04C53.2619 24.032 46.4699 26.432 44.4539 23.696L41.7659 27.224ZM53.3206 27.224C54.3526 28.568 57.2086 29.264 59.4886 28.952C63.4966 28.4 67.0246 24.608 67.4806 21.68C67.6966 20.168 66.7606 19.208 65.5366 18.608C67.3846 17.552 69.2566 15.752 70.4326 14.096L68.7766 11.432C67.5286 11.72 63.8806 12.68 65.0806 11.048L62.3926 9.656C61.4326 10.472 61.1446 11.912 61.3126 12.92C59.2726 16.376 58.1686 17.84 57.4726 18.752L58.6246 19.688C59.7046 18.392 61.6966 15.248 62.3206 14.24C63.4966 14.96 64.7206 15.008 65.9446 14.864C64.6726 16.448 62.7286 17.24 61.9126 17.672L61.8886 17.696L60.8086 19.808C61.8886 20.024 64.5286 20.72 64.6726 22.04C64.8166 24.032 58.0246 26.432 56.0086 23.696L53.3206 27.224ZM78.6993 11.96L78.1233 13.4C77.5953 12.608 76.9713 12.248 76.0593 12.224C73.3473 12.152 71.1393 14.696 70.1553 16.904C68.7633 20.144 69.4833 23.096 72.3393 23C73.7793 22.952 75.2913 21.848 75.8433 21.104C75.8673 22.088 76.7313 22.976 77.9073 22.976C79.9473 22.976 82.4673 21.2 85.0353 16.904L83.4273 16.664C82.3233 18.2 80.6673 20.024 79.8513 19.976C79.3473 19.952 79.4673 19.184 79.9473 18.056C80.1633 17.552 82.3713 12.8 82.7793 11.96H78.6993ZM75.5073 18.944C74.5713 19.712 73.6353 19.592 73.5873 18.656C73.5153 17.48 74.5473 15.56 75.5073 14.816C76.3953 14.072 77.3553 14.216 77.3553 15.152C77.3553 16.112 76.4193 18.176 75.5073 18.944Z" fill="black"/>
<path d="M35.688 26.312L26.976 38.096C28.296 35.096 30.672 30.152 31.896 27.488L28.176 25.616C25.464 29.96 23.88 32.024 23.592 32.432C22.752 28.688 18.528 26.744 14.448 26.888C9.576 27.08 4.584 29.792 3.672 34.832C2.928 39.152 6.048 42.776 10.584 42.08L12.24 36.704C9.936 37.256 8.328 36.176 8.304 34.52C8.136 26.528 27.432 28.496 19.56 37.256C15.192 41.912 10.512 44.552 6.144 44.6C4.224 44.624 3 44.048 2.376 43.376L0.336 48.2C1.2 49.256 3.336 49.664 4.368 49.664C9.528 49.616 16.344 47 26.28 32.936C25.392 35.816 22.536 42.224 19.296 46.688H25.032C26.664 40.712 29.952 36.608 33.6 31.76C30.024 37.304 26.064 49.112 30.6 52.4L34.968 49.52C29.64 44.864 35.976 31.592 40.224 26.312H35.688ZM44.0509 35.96L43.4749 37.4C42.9469 36.608 42.3229 36.248 41.4109 36.224C38.6989 36.152 36.4909 38.696 35.5069 40.904C34.1149 44.144 34.8349 47.096 37.6909 47C39.1309 46.952 40.6429 45.848 41.1949 45.104C41.2189 46.088 42.0829 46.976 43.2589 46.976C45.2989 46.976 47.8189 45.2 50.3869 40.904L48.7789 40.664C47.6749 42.2 46.0189 44.024 45.2029 43.976C44.6989 43.952 44.8189 43.184 45.2989 42.056C45.5149 41.552 47.7229 36.8 48.1309 35.96H44.0509ZM40.8589 42.944C39.9229 43.712 38.9869 43.592 38.9389 42.656C38.8669 41.48 39.8989 39.56 40.8589 38.816C41.7469 38.072 42.7069 38.216 42.7069 39.152C42.7069 40.112 41.7709 42.176 40.8589 42.944ZM54.8061 35.96H50.5581L45.8541 47H50.0781L52.1181 41.288C53.4141 38.576 55.5741 38.456 54.9501 40.112L53.6301 42.896C52.5021 45.44 53.5101 46.952 55.6701 46.952C57.7101 46.952 60.3261 45.272 62.8941 40.976H61.1901C60.0861 42.512 58.4061 44.216 57.6621 44C57.1581 43.856 57.4221 43.088 58.8381 40.4C60.2301 37.76 59.3421 36.152 57.7821 36.008C56.8701 35.936 55.8861 36.032 54.2301 37.208L54.8061 35.96ZM64.9194 34.496C65.7354 35.264 67.3674 34.904 68.4954 33.824C69.6234 32.72 69.8874 31.16 68.9994 30.464C68.1594 29.696 66.5994 30.056 65.4474 31.136C64.3194 32.264 64.0554 33.752 64.9194 34.496ZM63.3354 35.96L60.4554 42.608C59.3754 45.152 59.9994 46.952 62.1354 46.952C64.1754 46.952 66.8874 45.2 69.4554 40.904L67.8474 40.664C66.7434 42.2 64.8714 44.216 64.1274 44C63.6234 43.856 63.4554 43.4 65.2554 40.064L67.4394 35.96H63.3354ZM75.9728 35.96L75.3968 37.4C74.8688 36.608 74.2448 36.248 73.3328 36.224C70.6208 36.152 68.4128 38.696 67.4288 40.904C66.0367 44.144 66.7568 47.096 69.6128 47C71.0528 46.952 72.5648 45.848 73.1168 45.104C73.1408 46.088 74.0048 46.976 75.1808 46.976C77.2208 46.976 79.7408 45.2 82.3088 40.904L80.7008 40.664C79.5968 42.2 77.9408 44.024 77.1248 43.976C76.6208 43.952 76.7408 43.184 77.2208 42.056C77.4368 41.552 79.6448 36.8 80.0528 35.96H75.9728ZM72.7808 42.944C71.8448 43.712 70.9088 43.592 70.8608 42.656C70.7888 41.48 71.8208 39.56 72.7808 38.816C73.6688 38.072 74.6288 38.216 74.6288 39.152C74.6288 40.112 73.6928 42.176 72.7808 42.944Z" fill="black"/>
</svg>
