<svg width="232" height="48" viewBox="0 0 232 48" fill="none" xmlns="http://www.w3.org/2000/svg">
<path d="M59 21V0H77V3H80V12H77V15H65V21H59ZM65 12H74V3H65V12ZM92 3V0H98V3H92ZM86 21V18H92V9H89V6H98V18H104V21H86ZM107 21V18H110V15H113V12H116V9H107V6H128V9H125V12H122V15H119V18H128V21H107ZM131 21V18H134V15H137V12H140V9H131V6H152V9H149V12H146V15H143V18H152V21H131ZM158 21V18H155V15H158V12H170V9H158V6H173V9H176V21H158ZM161 18H170V15H161V18Z" fill="black"/>
<path d="M59 45V24H65V27H68V30H71V27H74V24H80V45H74V33H71V39H68V33H65V45H59ZM86 45V42H83V39H86V36H98V33H86V30H101V33H104V45H86ZM89 42H98V39H89V42ZM107 45V30H125V33H128V45H122V33H113V45H107ZM140 27V24H146V27H140ZM134 45V42H140V33H137V30H146V42H152V45H134ZM158 45V42H155V39H158V36H170V33H158V30H173V33H176V45H158ZM161 42H170V39H161V42Z" fill="black"/>
<mask id="path-3-inside-1" fill="white">
<path fill-rule="evenodd" clip-rule="evenodd" d="M16.5 0H31.625V3.97059H39.875V7.70053H44V14.4385H38.5V15.8824H27V21.1765H15.125V23.8235L27 23.8235V29.1176H38.5V30.5615H44V37.2995H39.875V41.0294H31.625V45H16.5V41.0294H6.875V37.0588H7V33.0882H4.125V29.5989H0V25.1471V23.8235V21.1765V19.8529V15.4011H4.125V11.9118H7V7.94118H6.875V3.97059H16.5V0Z"/>
</mask>
<path fill-rule="evenodd" clip-rule="evenodd" d="M16.5 0H31.625V3.97059H39.875V7.70053H44V14.4385H38.5V15.8824H27V21.1765H15.125V23.8235L27 23.8235V29.1176H38.5V30.5615H44V37.2995H39.875V41.0294H31.625V45H16.5V41.0294H6.875V37.0588H7V33.0882H4.125V29.5989H0V25.1471V23.8235V21.1765V19.8529V15.4011H4.125V11.9118H7V7.94118H6.875V3.97059H16.5V0Z" fill="#DEB92A"/>
<path d="M31.625 0H34.625V-3H31.625V0ZM16.5 0V-3H13.5V0H16.5ZM31.625 3.97059H28.625V6.97059H31.625V3.97059ZM39.875 3.97059H42.875V0.970588H39.875V3.97059ZM39.875 7.70053H36.875V10.7005H39.875V7.70053ZM44 7.70053H47V4.70053H44V7.70053ZM44 14.4385V17.4385H47V14.4385H44ZM38.5 14.4385V11.4385H35.5V14.4385H38.5ZM38.5 15.8824V18.8824H41.5V15.8824H38.5ZM27 15.8824V12.8824H24V15.8824H27ZM27 21.1765V24.1765H30V21.1765H27ZM15.125 21.1765V18.1765H12.125V21.1765H15.125ZM15.125 23.8235H12.125V26.8235L15.125 26.8235L15.125 23.8235ZM27 23.8235H30V20.8235L27 20.8235L27 23.8235ZM27 29.1176H24V32.1176H27V29.1176ZM38.5 29.1176H41.5V26.1176H38.5V29.1176ZM38.5 30.5615H35.5V33.5615H38.5V30.5615ZM44 30.5615H47V27.5615H44V30.5615ZM44 37.2995V40.2995H47V37.2995H44ZM39.875 37.2995V34.2995H36.875V37.2995H39.875ZM39.875 41.0294V44.0294H42.875V41.0294H39.875ZM31.625 41.0294V38.0294H28.625V41.0294H31.625ZM31.625 45V48H34.625V45H31.625ZM16.5 45H13.5V48H16.5V45ZM16.5 41.0294H19.5V38.0294H16.5V41.0294ZM6.875 41.0294H3.875V44.0294H6.875V41.0294ZM6.875 37.0588V34.0588H3.875V37.0588H6.875ZM7 37.0588V40.0588H10V37.0588H7ZM7 33.0882H10V30.0882H7V33.0882ZM4.125 33.0882H1.125V36.0882H4.125V33.0882ZM4.125 29.5989H7.125V26.5989H4.125V29.5989ZM0 29.5989H-3V32.5989H0V29.5989ZM0 15.4011V12.4011H-3V15.4011H0ZM4.125 15.4011V18.4011H7.125V15.4011H4.125ZM4.125 11.9118V8.91177H1.125V11.9118H4.125ZM7 11.9118V14.9118H10V11.9118H7ZM7 7.94118H10V4.94118H7V7.94118ZM6.875 7.94118H3.875V10.9412H6.875V7.94118ZM6.875 3.97059V0.970588H3.875V3.97059H6.875ZM16.5 3.97059V6.97059H19.5V3.97059H16.5ZM31.625 -3H16.5V3H31.625V-3ZM34.625 3.97059V0H28.625V3.97059H34.625ZM39.875 0.970588H31.625V6.97059H39.875V0.970588ZM42.875 7.70053V3.97059H36.875V7.70053H42.875ZM44 4.70053H39.875V10.7005H44V4.70053ZM47 14.4385V7.70053H41V14.4385H47ZM38.5 17.4385H44V11.4385H38.5V17.4385ZM41.5 15.8824V14.4385H35.5V15.8824H41.5ZM27 18.8824H38.5V12.8824H27V18.8824ZM30 21.1765V15.8824H24V21.1765H30ZM15.125 24.1765H27V18.1765H15.125V24.1765ZM12.125 21.1765V23.8235H18.125V21.1765H12.125ZM15.125 26.8235L27 26.8235L27 20.8235L15.125 20.8235L15.125 26.8235ZM24 23.8235V29.1176H30V23.8235H24ZM27 32.1176H38.5V26.1176H27V32.1176ZM35.5 29.1176V30.5615H41.5V29.1176H35.5ZM38.5 33.5615H44V27.5615H38.5V33.5615ZM41 30.5615V37.2995H47V30.5615H41ZM44 34.2995H39.875V40.2995H44V34.2995ZM36.875 37.2995V41.0294H42.875V37.2995H36.875ZM39.875 38.0294H31.625V44.0294H39.875V38.0294ZM28.625 41.0294V45H34.625V41.0294H28.625ZM31.625 42H16.5V48H31.625V42ZM19.5 45V41.0294H13.5V45H19.5ZM16.5 38.0294H6.875V44.0294H16.5V38.0294ZM9.875 41.0294V37.0588H3.875V41.0294H9.875ZM6.875 40.0588H7V34.0588H6.875V40.0588ZM10 37.0588V33.0882H4V37.0588H10ZM7 30.0882H4.125V36.0882H7V30.0882ZM7.125 33.0882V29.5989H1.125V33.0882H7.125ZM4.125 26.5989H0V32.5989H4.125V26.5989ZM3 29.5989V25.1471H-3V29.5989H3ZM3 25.1471V23.8235H-3V25.1471H3ZM3 23.8235V21.1765H-3V23.8235H3ZM-3 19.8529V21.1765H3V19.8529H-3ZM-3 15.4011V19.8529H3V15.4011H-3ZM4.125 12.4011H0V18.4011H4.125V12.4011ZM1.125 11.9118V15.4011H7.125V11.9118H1.125ZM7 8.91177H4.125V14.9118H7V8.91177ZM4 7.94118V11.9118H10V7.94118H4ZM6.875 10.9412H7V4.94118H6.875V10.9412ZM3.875 3.97059V7.94118H9.875V3.97059H3.875ZM16.5 0.970588H6.875V6.97059H16.5V0.970588ZM13.5 0V3.97059H19.5V0H13.5Z" fill="black" mask="url(#path-3-inside-1)"/>
<rect x="194" y="21" width="6" height="6" fill="black"/>
<rect x="210" y="21" width="6" height="6" fill="black"/>
<rect x="226" y="21" width="6" height="6" fill="black"/>
<rect x="12" y="9" width="5" height="5" fill="#CC6741"/>
<rect x="24" y="33" width="5" height="5" fill="#CC6741"/>
<rect x="12" y="28" width="5" height="5" fill="#CC6741"/>
<rect x="27" y="7" width="4" height="4" fill="#CC6741"/>
</svg>
