<svg width="163" height="148" viewBox="0 0 163 148" fill="none" xmlns="http://www.w3.org/2000/svg">
<path d="M66.7183 58.2048C66.7183 54.3388 69.8523 51.2048 73.7183 51.2048H88.4901C92.3561 51.2048 95.4901 54.3388 95.4901 58.2048V95.3234C95.4901 96.9944 95.7365 98.6562 96.2213 100.255L103.082 122.886C103.213 123.319 103.302 123.763 103.347 124.213L104.467 135.296C104.884 139.419 101.647 143 97.5028 143H66.0842C61.983 143 58.7603 139.49 59.1097 135.403L60.0873 123.971C60.1202 123.585 60.1851 123.203 60.2813 122.828L66.1852 99.8117C66.5392 98.4317 66.7183 97.0126 66.7183 95.5878V58.2048Z" fill="#EAE4CC" stroke="#C9C4B0" stroke-width="10"/>
<path d="M158 50.8924C158 58.8784 157.272 65.7413 154.595 71.6C152.002 77.2761 147.372 82.4488 138.668 86.6564C136.771 87.5739 133.896 87.7306 129.563 86.6934C125.298 85.6726 120.437 83.7033 115.044 81.3527C113.94 80.8717 112.813 80.3741 111.669 79.8692C107.381 77.9758 102.861 75.9803 98.4772 74.373C92.9343 72.3406 87.0798 70.718 81.5 70.718C75.9267 70.718 70.0268 72.3376 64.4199 74.3654C60.0085 75.9609 55.4453 77.9399 51.1032 79.823C49.9134 80.339 48.7402 80.8478 47.5912 81.3396C42.1006 83.6895 37.1341 85.6647 32.7865 86.6894C28.3573 87.7332 25.4353 87.5726 23.5404 86.6564C14.8777 82.4684 10.4672 77.3383 8.05822 71.7103C5.54945 65.8493 5 58.9854 5 50.8924C5 37.2573 15.3994 24.0372 33.8268 15.1285C46.8613 8.82687 63.3994 5 81.5 5C99.6006 5 116.139 8.82687 129.173 15.1285C147.601 24.0372 158 37.2573 158 50.8924Z" fill="#EAE4CC" stroke="#C9C4B0" stroke-width="10"/>
<path d="M38.1372 78.7707C37.1768 77.217 37.7148 75.28 39.339 74.4442L54.726 66.5262C57.1648 65.2712 60.311 66.1452 61.7532 68.4782C62.2208 69.2347 62.4675 70.0866 62.4675 70.9449L62.4675 78.0485C62.4675 82.0715 56.6402 83.0982 54.7654 79.4056C53.7962 77.4968 51.3925 76.6142 49.381 77.4284L42.5407 80.1972C40.945 80.8432 39.036 80.2248 38.1372 78.7707Z" fill="#473C28"/>
<path d="M123.857 78.7707C124.818 77.217 124.28 75.28 122.655 74.4442L107.268 66.5262C104.83 65.2712 101.683 66.1452 100.241 68.4782C99.7736 69.2347 99.5269 70.0866 99.5269 70.9449L99.5269 78.0485C99.5269 82.0715 105.354 83.0982 107.229 79.4056C108.198 77.4968 110.602 76.6142 112.613 77.4284L119.454 80.1972C121.049 80.8432 122.958 80.2248 123.857 78.7707Z" fill="#473C28"/>
<rect x="71.7" y="60" width="18.8" height="21" fill="#EAE4CC"/>
<line y1="-0.5" x2="11.0414" y2="-0.5" transform="matrix(0.802158 0.597112 -0.668319 0.743874 19.7817 39.7072)" stroke="#C9C4B0"/>
<line y1="-0.5" x2="10.795" y2="-0.5" transform="matrix(0.629908 -0.77667 0.827517 0.56144 64.3301 47.1957)" stroke="#C9C4B0"/>
<line y1="-0.5" x2="10.795" y2="-0.5" transform="matrix(0.629908 -0.77667 0.827517 0.56144 69.6311 132.559)" stroke="#C9C4B0"/>
<line y1="-0.5" x2="10.58" y2="-0.5" transform="matrix(-0.410403 -0.911904 0.937195 -0.348806 88.2156 88.3401)" stroke="#C9C4B0"/>
<line y1="-0.5" x2="10.5922" y2="-0.5" transform="matrix(0.426326 0.90457 -0.931706 0.363214 95.7427 12.9952)" stroke="#C9C4B0"/>
<line y1="-0.5" x2="11.2218" y2="-0.5" transform="matrix(0.901867 -0.432013 0.496621 0.867968 131.349 77.0433)" stroke="#C9C4B0"/>
</svg>
