<svg width="320" height="192" viewBox="0 0 320 192" fill="none" xmlns="http://www.w3.org/2000/svg">
<path d="M28.2041 145.308H242.988V189L28.2041 176.105V145.308Z" fill="#A59DC6" stroke="#52487D" stroke-width="3"/>
<path d="M118.963 130.413H297.227L242.988 145.308H28.2041L118.963 130.413Z" fill="#B9AAF3" stroke="#52487D" stroke-width="3"/>
<path d="M242.988 145.261L296 131L297.227 159.541L242.988 189V145.261Z" fill="#8071BB" stroke="#52487D" stroke-width="3"/>
<path d="M242.988 145.261L295.419 131.5V150.273L248.051 174.436L242.988 145.261Z" fill="#8071BB" stroke="#52487D" stroke-width="3"/>
<line y1="-0.5" x2="8.75554" y2="-0.5" transform="matrix(-0.372468 -0.928045 0.596585 -0.80255 76.5913 167.761)" stroke="#325C6D"/>
<line y1="-0.5" x2="9.64165" y2="-0.5" transform="matrix(-0.199593 0.979879 -0.825858 -0.563878 277.094 147.625)" stroke="#325C6D"/>
<path d="M313.504 86.6064L191.611 120.606L191.611 160.106L315.809 110.182L313.504 86.6064Z" fill="#91C36A" stroke="#6C8F50" stroke-width="3"/>
<path d="M190.385 91.1133L44.5039 108.606L190.987 119.605L314.881 85.863L190.385 91.1133Z" fill="#CBF2AC" stroke="#6C8F50" stroke-width="3"/>
<path d="M191.775 120.648L45.5038 109.444L45.8724 130.097L192.471 159.636L191.775 120.648Z" fill="#B7D79E" stroke="#6C8F50" stroke-width="3"/>
<path d="M191.562 119.879L45.8653 109.144L48.5773 121.972L187.219 144.23L191.562 119.879Z" fill="#B7D79E" stroke="#6C8F50" stroke-width="3"/>
<line y1="-0.5" x2="9.46085" y2="-0.5" transform="matrix(0.240387 -0.970677 0.769465 0.638689 268.049 123.737)" stroke="#325C6D"/>
<line y1="-0.5" x2="8.87887" y2="-0.5" transform="matrix(0.350962 -0.93639 0.622789 0.78239 73.5039 122.921)" stroke="#325C6D"/>
<path d="M16.7765 70.0642L141.028 86.4555L143.097 129.932L16.9344 93.4679L16.7765 70.0642Z" fill="#D69EB9" stroke="#995B79" stroke-width="3"/>
<path d="M139.118 55.7799L285.7 52.006L141.393 87.1403L15.4081 69.1988L139.118 55.7799Z" fill="#FAB7D7" stroke="#995B79" stroke-width="3"/>
<path d="M141.1 88.4038L284.259 52.7841L285.856 74.4739L144.115 129.349L141.1 88.4038Z" fill="#D980AC" stroke="#995B79" stroke-width="3"/>
<path d="M141.155 88.012L284.287 53.1254L284.099 69.2792L147.976 116.018L141.155 88.012Z" fill="#D980AC" stroke="#995B79" stroke-width="3"/>
<line y1="-0.5" x2="6.22401" y2="-0.5" transform="matrix(-0.873836 -0.486222 0.11488 -0.993379 138.837 81.1674)" stroke="#325C6D"/>
<path d="M103.71 101.92L99.126 95.4131" stroke="#325C6D"/>
<line y1="-0.5" x2="9.37427" y2="-0.5" transform="matrix(-0.178462 0.983947 -0.796735 -0.604329 244.847 69.7954)" stroke="#325C6D"/>
<path d="M297.022 25.8949L82.2384 25.8949V69.5867L297.022 56.6918V25.8949Z" fill="#44829B" stroke="#325C6D" stroke-width="3"/>
<path d="M206.264 11L28 11L82.2384 25.8949L297.022 25.8949L206.264 11Z" fill="#9ED4E9" stroke="#325C6D" stroke-width="3"/>
<path d="M82.2383 25.8473L29.5 11.5L27.9999 40.1278L82.2383 69.5867V25.8473Z" fill="#52A3C4" stroke="#325C6D" stroke-width="3"/>
<path d="M82.2383 25.8473L30 12.5L32.5 31.5L70.5 50.5L82.2383 25.8473Z" fill="#52A3C4" stroke="#325C6D" stroke-width="3"/>
<line y1="-0.5" x2="9.5185" y2="-0.5" transform="matrix(0.227928 0.973678 -0.786734 0.617292 37.7627 22.916)" stroke="#325C6D"/>
<line y1="-0.5" x2="6.64438" y2="-0.5" transform="matrix(0.744331 -0.667811 0.258571 0.965992 140.512 44.9944)" stroke="#325C6D"/>
<line y1="-0.5" x2="5.54818" y2="-0.5" transform="matrix(-0.989714 -0.143063 0.0430865 -0.999071 205.607 18.4136)" stroke="#325C6D"/>
<line y1="-0.5" x2="9.64447" y2="-0.5" transform="matrix(-0.198921 -0.980016 0.826803 -0.562492 285.268 42.4384)" stroke="#325C6D"/>
</svg>
