<svg width="188" height="121" viewBox="0 0 188 121" fill="none" xmlns="http://www.w3.org/2000/svg">
<mask id="path-1-inside-1" fill="white">
<path fill-rule="evenodd" clip-rule="evenodd" d="M99.6142 0C82.6255 0 67.5737 7.98199 58.2862 20.2621C54.8455 21.3743 51.554 22.6581 48.4369 24.0969C46.0549 23.3772 43.5104 22.9879 40.8671 22.9879C27.4659 22.9879 16.6021 32.994 16.6021 45.3372C16.6021 48.3111 17.2327 51.1493 18.3775 53.7446C17.2152 57.2043 16.6021 60.8015 16.6021 64.4938C16.6021 65.3366 16.634 66.1744 16.6972 67.0068C6.73522 71.2659 0 79.4108 0 88.7588C0 102.513 14.5804 113.662 32.5662 113.662C40.9043 113.662 48.5105 111.266 54.2715 107.325C65.0221 111.36 77.443 113.662 90.6742 113.662C90.9405 113.662 91.2065 113.661 91.4722 113.66C95.5563 117.587 101.411 120.048 107.915 120.048C117.781 120.048 126.154 114.386 129.118 106.53C133.778 104.648 138.101 102.434 142.011 99.938C142.933 100.335 143.877 100.706 144.842 101.048C162.767 107.413 181.166 101.681 185.937 88.2452C190.087 76.5573 182.558 62.8899 168.729 55.3415C169.458 53.4107 169.855 51.3331 169.855 49.1687C169.855 38.9414 160.992 30.6506 150.06 30.6506C149.034 30.6506 148.025 30.7237 147.041 30.8646C139.498 12.7743 121.106 0 99.6142 0Z"/>
</mask>
<path fill-rule="evenodd" clip-rule="evenodd" d="M99.6142 0C82.6255 0 67.5737 7.98199 58.2862 20.2621C54.8455 21.3743 51.554 22.6581 48.4369 24.0969C46.0549 23.3772 43.5104 22.9879 40.8671 22.9879C27.4659 22.9879 16.6021 32.994 16.6021 45.3372C16.6021 48.3111 17.2327 51.1493 18.3775 53.7446C17.2152 57.2043 16.6021 60.8015 16.6021 64.4938C16.6021 65.3366 16.634 66.1744 16.6972 67.0068C6.73522 71.2659 0 79.4108 0 88.7588C0 102.513 14.5804 113.662 32.5662 113.662C40.9043 113.662 48.5105 111.266 54.2715 107.325C65.0221 111.36 77.443 113.662 90.6742 113.662C90.9405 113.662 91.2065 113.661 91.4722 113.66C95.5563 117.587 101.411 120.048 107.915 120.048C117.781 120.048 126.154 114.386 129.118 106.53C133.778 104.648 138.101 102.434 142.011 99.938C142.933 100.335 143.877 100.706 144.842 101.048C162.767 107.413 181.166 101.681 185.937 88.2452C190.087 76.5573 182.558 62.8899 168.729 55.3415C169.458 53.4107 169.855 51.3331 169.855 49.1687C169.855 38.9414 160.992 30.6506 150.06 30.6506C149.034 30.6506 148.025 30.7237 147.041 30.8646C139.498 12.7743 121.106 0 99.6142 0Z" fill="#95491E"/>
<path d="M58.2862 20.2621L61.3619 29.7774L64.3608 28.808L66.262 26.2943L58.2862 20.2621ZM48.4369 24.0969L45.5445 33.6694L49.1797 34.7678L52.6276 33.1764L48.4369 24.0969ZM18.3775 53.7446L27.8569 56.9293L29.0913 53.2551L27.5269 49.7087L18.3775 53.7446ZM16.6972 67.0068L20.6283 76.2017L27.2098 73.3879L26.6685 66.2505L16.6972 67.0068ZM54.2715 107.325L57.7851 97.9625L52.9168 96.1354L48.6251 99.0714L54.2715 107.325ZM91.4722 113.66L98.4038 106.452L95.4709 103.631L91.4021 103.66L91.4722 113.66ZM129.118 106.53L125.373 97.2577L121.308 98.8991L119.761 103.001L129.118 106.53ZM142.011 99.938L145.966 90.7535L141.098 88.6571L136.631 91.509L142.011 99.938ZM144.842 101.048L141.495 110.472L141.495 110.472L144.842 101.048ZM185.937 88.2452L195.36 91.5914V91.5914L185.937 88.2452ZM168.729 55.3415L159.374 51.807L156.298 59.9489L163.937 64.119L168.729 55.3415ZM147.041 30.8646L137.812 34.7132L140.792 41.861L148.458 40.7637L147.041 30.8646ZM66.262 26.2943C73.6844 16.4802 85.8002 10 99.6142 10V-10C79.4507 -10 61.4629 -0.516181 50.3104 14.23L66.262 26.2943ZM52.6276 33.1764C55.3689 31.9111 58.2872 30.7712 61.3619 29.7774L55.2104 10.7469C51.4038 11.9774 47.739 13.4052 44.2461 15.0174L52.6276 33.1764ZM40.8671 32.9879C42.5258 32.9879 44.096 33.2318 45.5445 33.6694L51.3292 14.5243C48.0138 13.5225 44.4949 12.9879 40.8671 12.9879V32.9879ZM26.6021 45.3372C26.6021 39.2752 32.1986 32.9879 40.8671 32.9879V12.9879C22.7332 12.9879 6.6021 26.7128 6.6021 45.3372H26.6021ZM27.5269 49.7087C26.9261 48.3466 26.6021 46.8799 26.6021 45.3372H6.6021C6.6021 49.7423 7.53938 53.952 9.22813 57.7805L27.5269 49.7087ZM26.6021 64.4938C26.6021 61.9234 27.0267 59.4004 27.8569 56.9293L8.8982 50.5599C7.40374 55.0083 6.6021 59.6797 6.6021 64.4938H26.6021ZM26.6685 66.2505C26.6245 65.6693 26.6021 65.0837 26.6021 64.4938H6.6021C6.6021 65.5894 6.64364 66.6796 6.72581 67.763L26.6685 66.2505ZM10 88.7588C10 84.6328 13.0798 79.4289 20.6283 76.2017L12.7661 57.8119C0.390652 63.1028 -10 74.1889 -10 88.7588H10ZM32.5662 103.662C25.5737 103.662 19.6131 101.484 15.6129 98.4247C11.622 95.3728 10 91.8656 10 88.7588H-10C-10 99.4058 -4.33181 108.35 3.46391 114.312C11.2504 120.266 21.5729 123.662 32.5662 123.662V103.662ZM48.6251 99.0714C44.6452 101.794 39.0369 103.662 32.5662 103.662V123.662C42.7717 123.662 52.3759 120.738 59.9178 115.578L48.6251 99.0714ZM90.6742 103.662C78.5832 103.662 67.3577 101.555 57.7851 97.9625L50.7578 116.687C62.6866 121.164 76.3028 123.662 90.6742 123.662V103.662ZM91.4021 103.66C91.1599 103.661 90.9172 103.662 90.6742 103.662V123.662C90.9638 123.662 91.2532 123.661 91.5422 123.659L91.4021 103.66ZM107.915 110.048C103.922 110.048 100.572 108.537 98.4038 106.452L84.5406 120.867C90.5406 126.637 98.9013 130.048 107.915 130.048V110.048ZM119.761 103.001C118.433 106.522 114.112 110.048 107.915 110.048V130.048C121.451 130.048 133.875 122.25 138.474 110.06L119.761 103.001ZM136.631 91.509C133.273 93.652 129.503 95.5898 125.373 97.2577L132.862 115.803C138.052 113.707 142.928 111.217 147.392 108.367L136.631 91.509ZM148.188 91.6247C147.428 91.355 146.688 91.064 145.966 90.7535L138.056 109.123C139.178 109.606 140.325 110.056 141.495 110.472L148.188 91.6247ZM176.513 84.899C175.418 87.9834 172.525 90.9119 167.348 92.5247C162.167 94.1387 155.31 94.1537 148.188 91.6247L141.495 110.472C152.299 114.308 163.603 114.639 173.297 111.619C182.993 108.599 191.685 101.943 195.36 91.5914L176.513 84.899ZM163.937 64.119C175.482 70.4206 178.35 79.7257 176.513 84.899L195.36 91.5914C201.824 73.3889 189.633 55.3592 173.52 46.5639L163.937 64.119ZM159.855 49.1687C159.855 50.0992 159.686 50.9808 159.374 51.807L178.083 58.8759C179.23 55.8406 179.855 52.5669 179.855 49.1687H159.855ZM150.06 40.6506C156.108 40.6506 159.855 45.082 159.855 49.1687H179.855C179.855 32.8009 165.877 20.6506 150.06 20.6506V40.6506ZM148.458 40.7637C148.974 40.6899 149.509 40.6506 150.06 40.6506V20.6506C148.558 20.6506 147.077 20.7576 145.624 20.9655L148.458 40.7637ZM99.6142 10C117.108 10 131.836 20.3835 137.812 34.7132L156.271 27.016C147.16 5.16506 125.103 -10 99.6142 -10V10Z" fill="#642C0D" mask="url(#path-1-inside-1)"/>
<path d="M78.106 31.0741C87.4864 24.8907 109.111 16.9553 120.565 34.6811C115.463 30.5588 99.829 24.0662 78.106 31.0741Z" fill="#CB6023"/>
<path d="M53.4999 39.4999C46.3909 38.1733 32.8672 39.7984 35.6447 56.9119C36.4713 51.1079 41.1995 39.4999 53.4999 39.4999Z" fill="#CB6023"/>
<path d="M158.5 66.9999C163.294 74.1305 172.787 85.9999 146.5 85.9999C152.452 82.1858 165.94 88.3918 158.5 66.9999Z" fill="#CB6023"/>
<path d="M36.9478 76.593C29.5081 81.5678 11.1314 93.1019 52 93.4999C40.5925 91.8416 24 88.9999 36.9478 76.593Z" fill="#CB6023"/>
<path d="M134 46.4999C141.44 47.8265 153.839 53.4647 143.92 65.4043C145.903 61.2586 146.697 51.6737 134 46.4999Z" fill="#CB6023"/>
<path d="M77.122 54.259C71.6662 54.0932 61.3499 57.4429 63.7306 72.1685C63.5653 67.8569 66.0121 58.2389 77.122 54.259Z" fill="#CB6023"/>
<path d="M93 90.4999C96.6372 98.9571 110 109 119.5 86.9999C115.5 92.9999 103.713 104.271 93 90.4999Z" fill="#CB6023"/>
<line y1="-0.5" x2="10.6857" y2="-0.5" transform="matrix(0.629908 -0.77667 0.827517 0.56144 56.6558 48.0446)" stroke="#743A19"/>
<line y1="-0.5" x2="10.6857" y2="-0.5" transform="matrix(-0.565823 -0.824527 0.773317 -0.63402 131.993 49.5459)" stroke="#743A19"/>
<line y1="-0.5" x2="10.6848" y2="-0.5" transform="matrix(-0.916516 -0.399998 0.320451 -0.947265 125.948 86.8724)" stroke="#743A19"/>
<line y1="-0.5" x2="10.6848" y2="-0.5" transform="matrix(-0.916516 -0.399998 0.320451 -0.947265 99.1147 62.8271)" stroke="#743A19"/>
<line y1="-0.5" x2="10.6856" y2="-0.5" transform="matrix(-0.996018 0.0891536 -0.173696 -0.984799 48.491 72.411)" stroke="#743A19"/>
</svg>
