<svg width="2250" height="146" viewBox="0 0 2250 146" fill="none" xmlns="http://www.w3.org/2000/svg">
<rect x="1875" y="41" width="375" height="40" fill="#44829B"/>
<rect x="1875" width="375" height="27" fill="#D980AC"/>
<rect x="1875" y="81" width="375" height="14" fill="#DEB92A"/>
<rect x="1875" y="95" width="375" height="24" fill="#CC6741"/>
<rect x="1875" y="119" width="375" height="27" fill="#A59DC6"/>
<rect x="1875" y="27" width="375" height="14" fill="#DEB92A"/>
<line x1="1909.66" y1="77.0179" x2="1921.86" y2="67.9014" stroke="#325C6D"/>
<line x1="1990.17" y1="115.531" x2="2004.45" y2="120.83" stroke="#325C6D"/>
<line x1="2140.13" y1="13.4573" x2="2126.2" y2="19.6168" stroke="#325C6D"/>
<line x1="1971.29" y1="35.0669" x2="1968.51" y2="20.0913" stroke="#325C6D"/>
<line x1="2176.29" y1="59.1095" x2="2184.82" y2="46.4901" stroke="#325C6D"/>
<line x1="2150.04" y1="130.261" x2="2144.43" y2="139.424" stroke="#325C6D"/>
<rect x="1125" y="41" width="375" height="40" fill="#44829B"/>
<rect x="1125" width="375" height="27" fill="#D980AC"/>
<rect x="1125" y="81" width="375" height="14" fill="#DEB92A"/>
<rect x="1125" y="95" width="375" height="24" fill="#CC6741"/>
<rect x="1125" y="119" width="375" height="27" fill="#A59DC6"/>
<rect x="1125" y="27" width="375" height="14" fill="#DEB92A"/>
<line x1="1159.66" y1="77.0179" x2="1171.86" y2="67.9014" stroke="#325C6D"/>
<line x1="1240.17" y1="115.531" x2="1254.45" y2="120.83" stroke="#325C6D"/>
<line x1="1390.13" y1="13.4573" x2="1376.2" y2="19.6168" stroke="#325C6D"/>
<line x1="1221.29" y1="35.0669" x2="1218.51" y2="20.0913" stroke="#325C6D"/>
<line x1="1426.29" y1="59.1095" x2="1434.82" y2="46.4901" stroke="#325C6D"/>
<line x1="1400.04" y1="130.261" x2="1394.43" y2="139.424" stroke="#325C6D"/>
<rect x="375" y="41" width="375" height="40" fill="#44829B"/>
<rect x="375" width="375" height="27" fill="#D980AC"/>
<rect x="375" y="81" width="375" height="14" fill="#DEB92A"/>
<rect x="375" y="95" width="375" height="24" fill="#CC6741"/>
<rect x="375" y="119" width="375" height="27" fill="#A59DC6"/>
<rect x="375" y="27" width="375" height="14" fill="#DEB92A"/>
<line x1="409.658" y1="77.0179" x2="421.86" y2="67.9014" stroke="#325C6D"/>
<line x1="490.174" y1="115.531" x2="504.454" y2="120.83" stroke="#325C6D"/>
<line x1="640.133" y1="13.4573" x2="626.202" y2="19.6168" stroke="#325C6D"/>
<line x1="471.289" y1="35.0669" x2="468.509" y2="20.0913" stroke="#325C6D"/>
<line x1="676.286" y1="59.1095" x2="684.816" y2="46.4901" stroke="#325C6D"/>
<line x1="650.043" y1="130.261" x2="644.426" y2="139.424" stroke="#325C6D"/>
<rect x="1500" y="41" width="375" height="40" fill="#44829B"/>
<rect x="1500" width="375" height="27" fill="#D980AC"/>
<rect x="1500" y="81" width="375" height="14" fill="#DEB92A"/>
<rect x="1500" y="95" width="375" height="24" fill="#CC6741"/>
<rect x="1500" y="119" width="375" height="27" fill="#A59DC6"/>
<rect x="1500" y="27" width="375" height="14" fill="#DEB92A"/>
<line x1="1534.66" y1="77.0179" x2="1546.86" y2="67.9014" stroke="#325C6D"/>
<line x1="1615.17" y1="115.531" x2="1629.45" y2="120.83" stroke="#325C6D"/>
<line x1="1765.13" y1="13.4573" x2="1751.2" y2="19.6168" stroke="#325C6D"/>
<line x1="1596.29" y1="35.0669" x2="1593.51" y2="20.0913" stroke="#325C6D"/>
<line x1="1801.29" y1="59.1095" x2="1809.82" y2="46.4901" stroke="#325C6D"/>
<line x1="1775.04" y1="130.261" x2="1769.43" y2="139.424" stroke="#325C6D"/>
<rect x="750" y="41" width="375" height="40" fill="#44829B"/>
<rect x="750" width="375" height="27" fill="#D980AC"/>
<rect x="750" y="81" width="375" height="14" fill="#DEB92A"/>
<rect x="750" y="95" width="375" height="24" fill="#CC6741"/>
<rect x="750" y="119" width="375" height="27" fill="#A59DC6"/>
<rect x="750" y="27" width="375" height="14" fill="#DEB92A"/>
<line x1="784.658" y1="77.0179" x2="796.86" y2="67.9014" stroke="#325C6D"/>
<line x1="865.174" y1="115.531" x2="879.454" y2="120.83" stroke="#325C6D"/>
<line x1="1015.13" y1="13.4573" x2="1001.2" y2="19.6168" stroke="#325C6D"/>
<line x1="846.289" y1="35.0669" x2="843.509" y2="20.0913" stroke="#325C6D"/>
<line x1="1051.29" y1="59.1095" x2="1059.82" y2="46.4901" stroke="#325C6D"/>
<line x1="1025.04" y1="130.261" x2="1019.43" y2="139.424" stroke="#325C6D"/>
<rect y="41" width="375" height="40" fill="#44829B"/>
<rect width="375" height="27" fill="#D980AC"/>
<rect y="81" width="375" height="14" fill="#DEB92A"/>
<rect y="95" width="375" height="24" fill="#CC6741"/>
<rect y="119" width="375" height="27" fill="#A59DC6"/>
<rect y="27" width="375" height="14" fill="#DEB92A"/>
<line x1="34.6578" y1="77.0179" x2="46.8598" y2="67.9014" stroke="#325C6D"/>
<line x1="115.174" y1="115.531" x2="129.454" y2="120.83" stroke="#325C6D"/>
<line x1="265.133" y1="13.4573" x2="251.202" y2="19.6168" stroke="#325C6D"/>
<line x1="96.2892" y1="35.0669" x2="93.5085" y2="20.0913" stroke="#325C6D"/>
<line x1="301.286" y1="59.1095" x2="309.816" y2="46.4901" stroke="#325C6D"/>
<line x1="275.043" y1="130.261" x2="269.426" y2="139.424" stroke="#325C6D"/>
</svg>
