<svg width="386" height="256" viewBox="0 0 386 256" fill="none" xmlns="http://www.w3.org/2000/svg">
<g filter="url(#filter0_d)">
<path d="M369.747 137.832C377.811 123.03 369.215 104.652 352.684 101.354L46.2663 40.2293C26.5933 36.3049 10.5431 55.9838 18.3425 74.4661L85.5469 233.72C89.4548 242.98 98.5287 249 108.58 249H294.33C303.483 249 311.905 243.998 316.284 235.961L369.747 137.832Z" fill="#8DBDCB"/>
<path d="M368.869 137.353C376.611 123.143 368.358 105.5 352.489 102.335L46.0707 41.21C27.1846 37.4425 11.7764 56.3343 19.2639 74.0773L86.4683 233.331C90.2198 242.221 98.9308 248 108.58 248H294.33C303.117 248 311.202 243.198 315.405 235.482L368.869 137.353Z" stroke="#5E7C85" stroke-width="2"/>
</g>
<g filter="url(#filter1_d)">
<path d="M180.748 37.0601C177.255 22.4668 187.861 8.28291 202.846 7.50583L322.347 1.30899C336.072 0.597289 347.59 11.5337 347.59 25.2768V108.245C347.59 118.795 340.701 128.108 330.613 131.195L236.387 160.028C223.153 164.077 209.246 156.124 206.024 142.665L180.748 37.0601Z" fill="#EABBD2"/>
<path d="M181.721 36.8274C178.373 22.8421 188.537 9.24919 202.898 8.50449L322.399 2.30765C335.552 1.6256 346.59 12.1063 346.59 25.2768V108.245C346.59 118.356 339.988 127.281 330.32 130.239L236.095 159.072C223.412 162.952 210.084 155.331 206.997 142.432L181.721 36.8274Z" stroke="#6A5660" stroke-width="2"/>
</g>
<line y1="-0.5" x2="14.9607" y2="-0.5" transform="matrix(-0.571739 -0.820436 0.790507 -0.612453 51.2314 84.2743)" stroke="#325C6D"/>
<line y1="-0.5" x2="14.447" y2="-0.5" transform="matrix(0.999068 0.0431528 -0.0388196 0.999246 161.587 203.444)" stroke="#325C6D"/>
<line y1="-0.5" x2="14.5591" y2="-0.5" transform="matrix(0.919576 -0.392911 0.358738 0.933438 122.818 135.789)" stroke="#325C6D"/>
<line y1="-0.5" x2="14.446" y2="-0.5" transform="matrix(0.999732 -0.0231485 0.0208233 0.999783 237.522 39.0273)" stroke="#325C6D"/>
<line y1="-0.5" x2="15.0659" y2="-0.5" transform="matrix(0.444763 -0.895648 0.875446 0.483315 295.03 116.914)" stroke="#325C6D"/>
<line y1="-0.5" x2="14.9222" y2="-0.5" transform="matrix(0.612262 -0.790655 0.757841 0.65244 269.102 221.828)" stroke="#325C6D"/>
<defs>
<filter id="filter0_d" x="16.3306" y="39.7246" width="363.481" height="216.275" filterUnits="userSpaceOnUse" color-interpolation-filters="sRGB">
<feFlood flood-opacity="0" result="BackgroundImageFix"/>
<feColorMatrix in="SourceAlpha" type="matrix" values="0 0 0 0 0 0 0 0 0 0 0 0 0 0 0 0 0 0 127 0"/>
<feOffset dx="7" dy="7"/>
<feColorMatrix type="matrix" values="0 0 0 0 0.444554 0 0 0 0 0.603609 0 0 0 0 0.65 0 0 0 1 0"/>
<feBlend mode="normal" in2="BackgroundImageFix" result="effect1_dropShadow"/>
<feBlend mode="normal" in="SourceGraphic" in2="effect1_dropShadow" result="shape"/>
</filter>
<filter id="filter1_d" x="180.08" y="1.27612" width="174.51" height="166.81" filterUnits="userSpaceOnUse" color-interpolation-filters="sRGB">
<feFlood flood-opacity="0" result="BackgroundImageFix"/>
<feColorMatrix in="SourceAlpha" type="matrix" values="0 0 0 0 0 0 0 0 0 0 0 0 0 0 0 0 0 0 127 0"/>
<feOffset dx="7" dy="7"/>
<feColorMatrix type="matrix" values="0 0 0 0 0.704167 0 0 0 0 0.590159 0 0 0 0 0.64595 0 0 0 1 0"/>
<feBlend mode="normal" in2="BackgroundImageFix" result="effect1_dropShadow"/>
<feBlend mode="normal" in="SourceGraphic" in2="effect1_dropShadow" result="shape"/>
</filter>
</defs>
</svg>
