<svg width="200" height="68" viewBox="0 0 200 68" fill="none" xmlns="http://www.w3.org/2000/svg">
<g filter="url(#filter0_d)">
<rect x="8.5332" width="183.467" height="60.6512" rx="20" fill="#AE5682"/>
<rect x="9.0332" y="0.5" width="182.467" height="59.6512" rx="19.5" stroke="black"/>
</g>
<line x1="191.329" y1="27.6237" x2="199.329" y2="34.6237" stroke="black"/>
<line x1="191.329" y1="40.6237" x2="199.329" y2="47.6237" stroke="black"/>
<line x1="187.329" y1="52.6237" x2="195.329" y2="59.6237" stroke="black"/>
<line x1="177.329" y1="59.6237" x2="185.329" y2="66.6237" stroke="black"/>
<line x1="191.329" y1="14.6237" x2="199.329" y2="21.6237" stroke="black"/>
<line x1="159.329" y1="60.6237" x2="167.329" y2="67.6237" stroke="black"/>
<line x1="141.329" y1="60.6237" x2="149.329" y2="67.6237" stroke="black"/>
<line x1="123.329" y1="60.6237" x2="131.329" y2="67.6237" stroke="black"/>
<line x1="105.329" y1="60.6237" x2="113.329" y2="67.6237" stroke="black"/>
<line x1="88.3293" y1="60.6237" x2="96.3293" y2="67.6237" stroke="black"/>
<line x1="70.3293" y1="60.6237" x2="78.3293" y2="67.6237" stroke="black"/>
<line x1="52.3293" y1="60.6237" x2="60.3293" y2="67.6237" stroke="black"/>
<line x1="34.3293" y1="60.6237" x2="42.3293" y2="67.6237" stroke="black"/>
<line y1="-0.5" x2="8.75554" y2="-0.5" transform="matrix(-0.372468 -0.928045 0.596585 -0.80255 32.2612 18.1255)" stroke="#325C6D"/>
<line y1="-0.5" x2="8.75554" y2="-0.5" transform="matrix(-0.92696 0.375161 -0.804278 -0.594253 144.689 12.4204)" stroke="#325C6D"/>
<line y1="-0.5" x2="8.75554" y2="-0.5" transform="matrix(-0.575676 0.817678 -0.997982 -0.0634982 70.0403 32)" stroke="#325C6D"/>
<line y1="-0.5" x2="8.75554" y2="-0.5" transform="matrix(-0.759734 -0.650234 0.157346 -0.987544 169.652 46.6931)" stroke="#325C6D"/>
<path fill-rule="evenodd" clip-rule="evenodd" d="M79.062 1H30C18.9543 1 10 9.95429 10 21V39.9981C10 51.0438 18.9543 59.9981 30 59.9981H35.4254L35.788 59.5895L36.2617 59.9981H53.1834L53.546 59.5895L54.0196 59.9981H70.9414L71.304 59.5895L71.7776 59.9981H88.6994L89.062 59.5895L89.5356 59.9981H105.471L105.833 59.5895L106.307 59.9981H123.229L123.591 59.5895L124.065 59.9981H140.987L141.349 59.5895L141.823 59.9981H158.745L159.107 59.5895L159.581 59.9981H171C172.82 59.9981 174.584 59.755 176.26 59.2993L176.865 58.6168L177.295 58.9873C180.87 57.8027 183.998 55.6365 186.36 52.808L186.067 52.5555L186.731 51.8075L186.982 52.0241C189.189 49.0955 190.61 45.5409 190.931 41.674L190.013 40.8826L190.677 40.1346L190.996 40.4095C190.999 40.2727 191 40.1356 191 39.9981V34.6839C179.669 49.6642 161.556 59.3647 141.146 59.3647C107.812 59.3647 80.6068 33.4906 79.062 1ZM33.4089 18.6315L30.1916 10.7274L29.5896 11.5259L32.8069 19.43L33.4089 18.6315ZM70.68 32.1278L65.7074 39.0919L66.7055 39.1545L71.678 32.1905L70.68 32.1278Z" fill="#CC79A2"/>
<defs>
<filter id="filter0_d" x="8.5332" y="0" width="190.467" height="67.6512" filterUnits="userSpaceOnUse" color-interpolation-filters="sRGB">
<feFlood flood-opacity="0" result="BackgroundImageFix"/>
<feColorMatrix in="SourceAlpha" type="matrix" values="0 0 0 0 0 0 0 0 0 0 0 0 0 0 0 0 0 0 127 0"/>
<feOffset dx="7" dy="7"/>
<feColorMatrix type="matrix" values="0 0 0 0 0.891667 0 0 0 0 0.713864 0 0 0 0 0.801767 0 0 0 1 0"/>
<feBlend mode="normal" in2="BackgroundImageFix" result="effect1_dropShadow"/>
<feBlend mode="normal" in="SourceGraphic" in2="effect1_dropShadow" result="shape"/>
</filter>
</defs>
</svg>
