<svg width="200" height="68" viewBox="0 0 200 68" fill="none" xmlns="http://www.w3.org/2000/svg">
<g filter="url(#filter0_d)">
<rect x="8.53345" width="183.467" height="60.6512" rx="20" fill="#AE5682"/>
<rect x="9.03345" y="0.5" width="182.467" height="59.6512" rx="19.5" stroke="black"/>
</g>
<line x1="159.354" y1="60.6464" x2="162.354" y2="63.6464" stroke="black"/>
<line x1="141.354" y1="60.6464" x2="144.354" y2="63.6464" stroke="black"/>
<line x1="123.354" y1="60.6464" x2="126.354" y2="63.6464" stroke="black"/>
<line x1="105.354" y1="60.6464" x2="108.354" y2="63.6464" stroke="black"/>
<line x1="88.3536" y1="60.6464" x2="91.3536" y2="63.6464" stroke="black"/>
<line x1="70.3536" y1="60.6464" x2="73.3536" y2="63.6464" stroke="black"/>
<line x1="52.3" y1="60.6" x2="56.3" y2="63.6" stroke="black"/>
<line x1="34.3" y1="60.6" x2="38.3" y2="63.6" stroke="black"/>
<line y1="-0.5" x2="8.75554" y2="-0.5" transform="matrix(-0.372468 -0.928045 0.596585 -0.80255 32.2612 18.1255)" stroke="#325C6D"/>
<line y1="-0.5" x2="8.75554" y2="-0.5" transform="matrix(-0.92696 0.375161 -0.804278 -0.594253 144.689 12.4204)" stroke="#325C6D"/>
<line y1="-0.5" x2="8.75554" y2="-0.5" transform="matrix(-0.575676 0.817678 -0.997982 -0.0634982 70.0403 32)" stroke="#325C6D"/>
<line y1="-0.5" x2="8.75554" y2="-0.5" transform="matrix(-0.759734 -0.650234 0.157346 -0.987544 169.652 46.6931)" stroke="#325C6D"/>
<line x1="177.354" y1="59.6464" x2="180.354" y2="62.6464" stroke="black"/>
<line x1="190.3" y1="13.6" x2="194.3" y2="16.6" stroke="black"/>
<line x1="191.3" y1="27.6" x2="195.3" y2="30.6" stroke="black"/>
<line x1="191.3" y1="40.6" x2="195.3" y2="43.6" stroke="black"/>
<line x1="187.3" y1="52.6" x2="191.3" y2="55.6" stroke="black"/>
<defs>
<filter id="filter0_d" x="8.53345" y="0" width="186.467" height="63.6512" filterUnits="userSpaceOnUse" color-interpolation-filters="sRGB">
<feFlood flood-opacity="0" result="BackgroundImageFix"/>
<feColorMatrix in="SourceAlpha" type="matrix" values="0 0 0 0 0 0 0 0 0 0 0 0 0 0 0 0 0 0 127 0"/>
<feOffset dx="3" dy="3"/>
<feColorMatrix type="matrix" values="0 0 0 0 0.891667 0 0 0 0 0.713864 0 0 0 0 0.801767 0 0 0 1 0"/>
<feBlend mode="normal" in2="BackgroundImageFix" result="effect1_dropShadow"/>
<feBlend mode="normal" in="SourceGraphic" in2="effect1_dropShadow" result="shape"/>
</filter>
</defs>
</svg>
