<svg width="232" height="45" viewBox="0 0 232 45" fill="none" xmlns="http://www.w3.org/2000/svg">
<path d="M3.60496 22.0192L3.78579 18.8994L0.666022 18.7186L1.2085 9.35929L4.32826 9.54012L4.50909 6.42035L23.2277 7.50531L23.0468 10.6251L7.44803 9.72094L6.90555 19.0802L22.5044 19.9844L22.3235 23.1041L3.60496 22.0192ZM28.5631 23.4658L28.7439 20.346L25.6241 20.1652L26.1666 10.8059L29.2864 10.9867L29.4672 7.86696L45.066 8.77109L44.8852 11.8909L48.005 12.0717L47.4625 21.431L44.3427 21.2501L44.1619 24.3699L28.5631 23.4658ZM31.8637 20.5268L41.223 21.0693L41.7654 11.71L32.4061 11.1675L31.8637 20.5268ZM50.4014 24.7316L51.3055 9.13274L70.0241 10.2177L69.8433 13.3375L72.9631 13.5183L72.2398 25.9973L66.0002 25.6357L66.7235 13.1566L63.6038 12.9758L62.8805 25.4549L56.6409 25.0932L57.3642 12.6142L54.2445 12.4333L53.5212 24.9124L50.4014 24.7316ZM78.4793 26.359L78.6601 23.2392L75.5404 23.0584L76.0828 13.6991L79.2026 13.8799L79.3834 10.7602L94.9822 11.6643L94.8014 14.7841L97.9212 14.9649L97.5595 21.2044L81.9607 20.3003L81.7799 23.4201L94.2589 24.1434L94.0781 27.2631L78.4793 26.359ZM82.1415 17.1805L91.5008 17.723L91.6817 14.6032L82.3224 14.0608L82.1415 17.1805Z" fill="#433A68"/>
<path d="M115.604 29.0192L115.785 25.8994L112.666 25.7186L113.208 16.3593L116.328 16.5401L116.509 13.4204L132.107 14.3245L131.927 17.4442L135.046 17.6251L134.504 26.9844L131.384 26.8035L131.203 29.9233L115.604 29.0192ZM118.905 26.0802L128.264 26.6227L128.807 17.2634L119.448 16.7209L118.905 26.0802ZM146.802 30.8274L146.983 27.7077L143.863 27.5268L144.044 24.4071L140.924 24.2263L141.467 14.867L147.706 15.2286L147.164 24.5879L153.403 24.9496L153.946 15.5903L160.185 15.9519L159.643 25.3112L156.523 25.1304L156.342 28.2501L153.222 28.0693L153.042 31.1891L146.802 30.8274ZM165.521 31.9124L165.702 28.7926L162.582 28.6118L163.124 19.2525L166.244 19.4333L166.425 16.3136L182.024 17.2177L181.843 20.3375L184.963 20.5183L184.601 26.7578L169.002 25.8537L168.821 28.9734L181.3 29.6968L181.12 32.8165L165.521 31.9124ZM169.183 22.7339L178.542 23.2764L178.723 20.1566L169.364 19.6142L169.183 22.7339ZM197.442 21.2416L200.561 21.4224L200.381 24.5422L197.261 24.3614L196.718 33.7206L190.479 33.359L191.383 17.7602L197.622 18.1218L197.442 21.2416ZM210.102 18.8451L209.921 21.9649L200.561 21.4224L200.742 18.3026L210.102 18.8451Z" fill="#433A68"/>
</svg>
