<svg width="118" height="52" viewBox="0 0 118 52" fill="none" xmlns="http://www.w3.org/2000/svg">
<path d="M5.07439 51.1201L4.38012 48.9799L2.23991 49.6742L0.157112 43.2535L2.29732 42.5593L1.60305 40.4191L14.4443 36.2535L15.1386 38.3937L4.43753 41.865L6.52033 48.2856L17.2214 44.8143L17.9156 46.9545L5.07439 51.1201ZM22.1961 45.566L21.5018 43.4258L19.3616 44.12L17.2788 37.6994L19.419 37.0051L18.7247 34.8649L29.4258 31.3936L30.12 33.5338L32.2602 32.8395L34.343 39.2602L32.2028 39.9544L32.8971 42.0946L22.1961 45.566ZM23.642 42.7315L30.0626 40.6487L27.9798 34.2281L21.5592 36.3109L23.642 42.7315ZM37.1775 40.7061L33.7062 30.0051L46.5474 25.8394L47.2417 27.9797L49.3819 27.2854L52.159 35.8462L47.8786 37.2348L45.1015 28.6739L38.6809 30.7567L41.4579 39.3176L37.1775 40.7061ZM60.7198 33.0692L57.9427 24.5083L53.6623 25.8969L52.9681 23.7566L57.2485 22.3681L55.8599 18.0877L60.1404 16.6992L61.5289 20.9796L65.8093 19.591L66.5036 21.7313L62.2232 23.1198L65.0002 31.6806L60.7198 33.0692ZM73.5611 28.9036L72.8668 26.7633L70.7266 27.4576L70.0323 25.3174L72.1725 24.6231L71.4783 22.4829L80.0391 19.7059L79.3448 17.5657L70.784 20.3427L70.0897 18.2025L80.7908 14.7312L81.485 16.8714L83.6253 16.1771L86.4023 24.738L73.5611 28.9036ZM75.007 26.0691L81.4276 23.9863L80.7334 21.8461L74.3127 23.9289L75.007 26.0691ZM90.6827 23.3494L89.9885 21.2092L87.8483 21.9035L85.7655 15.4828L87.9057 14.7886L87.2114 12.6484L100.053 8.48277L100.747 10.623L90.0459 14.0943L92.1287 20.5149L102.83 17.0436L103.524 19.1838L90.6827 23.3494ZM112.085 16.4067L109.308 7.84591L105.027 9.23444L104.333 7.09424L108.613 5.7057L107.225 1.42528L111.505 0.0367499L112.894 4.31717L117.174 2.92863L117.869 5.06884L113.588 6.45738L116.365 15.0182L112.085 16.4067Z" fill="#070C04" fill-opacity="0.5"/>
</svg>
