<svg width="116" height="43" viewBox="0 0 116 43" fill="none" xmlns="http://www.w3.org/2000/svg">
<path d="M2.59362 18.1399L3.26315 15.2155L0.338811 14.546L2.34738 5.77301L5.27172 6.44253L5.94124 3.51819L17.6386 6.19629L18.9776 0.347622L24.8263 1.68667L20.1396 22.157L2.59362 18.1399ZM6.18748 15.8851L14.9605 17.8936L16.9691 9.12063L8.19605 7.11206L6.18748 15.8851ZM25.9883 23.4961L26.6578 20.5717L23.7335 19.9022L25.7421 11.1292L28.6664 11.7987L29.3359 8.87439L43.9576 12.222L43.2881 15.1463L46.2124 15.8159L44.8734 21.6645L30.2517 18.3169L29.5822 21.2413L41.2795 23.9194L40.61 26.8437L25.9883 23.4961ZM30.9212 15.3926L39.6942 17.4012L40.3637 14.4768L31.5907 12.4683L30.9212 15.3926ZM49.383 28.8523L50.0525 25.9279L47.1282 25.2584L47.7977 22.3341L50.722 23.0036L51.3916 20.0793L63.0889 22.7574L63.7584 19.833L52.0611 17.1549L52.7306 14.2306L67.3523 17.5782L66.6828 20.5025L69.6071 21.1721L66.929 32.8694L49.383 28.8523ZM52.9768 26.5975L61.7499 28.606L62.4194 25.6817L53.6464 23.6731L52.9768 26.5975ZM72.7777 34.2085L73.4472 31.2841L79.2959 32.6232L82.6435 18.0015L79.7192 17.332L80.3887 14.4076L89.1617 16.4162L85.1445 33.9622L90.9932 35.3013L90.3237 38.2256L72.7777 34.2085ZM93.248 38.8951L93.9175 35.9708L108.539 39.3184L109.209 36.3941L97.5114 33.716L98.1809 30.7916L95.2566 30.1221L95.9261 27.1978L98.8505 27.8673L99.52 24.943L114.142 28.2906L113.472 31.2149L101.775 28.5368L101.105 31.4612L112.803 34.1393L112.133 37.0636L115.057 37.7331L114.388 40.6575L111.464 39.9879L110.794 42.9123L93.248 38.8951Z" fill="#310119" fill-opacity="0.5"/>
</svg>
