<svg width="532" height="329" viewBox="0 0 532 329" fill="none" xmlns="http://www.w3.org/2000/svg">
<path d="M238.875 80.7456C235.137 85.0382 228.314 86.3725 219.825 84.4841C211.4 82.61 201.717 77.6181 192.842 69.8891C183.967 62.1602 177.693 53.2553 174.679 45.1676C171.642 37.018 172.026 30.0766 175.765 25.784C179.503 21.4913 186.326 20.1571 194.816 22.0455C203.241 23.9195 212.923 28.9115 221.798 36.6404C230.673 44.3693 236.947 53.2742 239.961 61.3619C242.998 69.5116 242.614 76.4529 238.875 80.7456Z" fill="#D980AC" stroke="black" stroke-width="3"/>
<path d="M227.922 71.2686C227.16 72.1429 225.955 72.716 224.227 72.8617C222.489 73.0082 220.323 72.7083 217.849 71.9284C212.905 70.3702 207.009 66.9847 201.394 62.0947C195.779 57.2047 191.616 51.8301 189.393 47.1471C188.281 44.8033 187.686 42.6994 187.593 40.9577C187.5 39.2259 187.902 37.9533 188.663 37.0791C189.424 36.2049 190.63 35.6317 192.358 35.4861C194.096 35.3395 196.261 35.6395 198.736 36.4194C203.68 37.9776 209.575 41.363 215.19 46.253C220.805 51.143 224.969 56.5176 227.191 61.2007C228.304 63.5445 228.898 65.6483 228.992 67.39C229.085 69.1218 228.683 70.3944 227.922 71.2686Z" fill="#A59DC6" stroke="black" stroke-width="3"/>
<path d="M238.023 82.692C241.984 86.7437 248.97 87.5937 257.551 85.0281C266.056 82.4853 275.711 76.6804 284.428 68.1593C293.146 59.6383 299.169 50.1184 301.905 41.6734C304.665 33.153 303.974 26.1493 300.014 22.0975C296.053 18.0458 289.067 17.1958 280.486 19.7614C271.981 22.3042 262.326 28.1091 253.609 36.6302C244.892 45.1512 238.868 54.6711 236.133 63.1161C233.372 71.6365 234.063 78.6402 238.023 82.692Z" fill="#D980AC" stroke="black" stroke-width="3"/>
<path d="M251.309 70.3165C252.12 71.1455 253.356 71.6484 255.09 71.6945C256.833 71.7409 258.978 71.3169 261.404 70.3961C266.25 68.5562 271.941 64.8374 277.266 59.6327C282.59 54.428 286.438 48.823 288.387 44.0199C289.363 41.616 289.836 39.4815 289.829 37.7373C289.823 36.003 289.348 34.7556 288.538 33.9266C287.727 33.0976 286.491 32.5947 284.757 32.5486C283.014 32.5022 280.869 32.9262 278.444 33.847C273.597 35.6869 267.906 39.4057 262.581 44.6104C257.257 49.8151 253.409 55.4201 251.46 60.2232C250.484 62.6271 250.011 64.7616 250.018 66.5058C250.024 68.2401 250.499 69.4875 251.309 70.3165Z" fill="#A59DC6" stroke="black" stroke-width="3"/>
<rect x="79" y="76.9711" width="318" height="60" rx="2" fill="#A59DC6" stroke="black" stroke-width="4"/>
<rect x="104" y="134.971" width="266" height="192" rx="2" fill="#A59DC6" stroke="black" stroke-width="4"/>
<rect x="207" y="76.9711" width="62" height="60" fill="#D980AC" stroke="black" stroke-width="4"/>
<rect x="220" y="134.971" width="34" height="192" fill="#D980AC" stroke="black" stroke-width="4"/>
<line x1="496.143" y1="16.3406" x2="484.598" y2="45.3189" stroke="black" stroke-width="0.5"/>
<line x1="113.991" y1="12.7183" x2="102.446" y2="41.6966" stroke="black" stroke-width="0.5"/>
<line x1="419.303" y1="198.966" x2="451.903" y2="220.7" stroke="black" stroke-width="0.5"/>
<line x1="1.00088" y1="219.195" x2="17.6656" y2="245.564" stroke="black" stroke-width="0.5"/>
<line x1="372.176" y1="23.2643" x2="400.669" y2="35.9604" stroke="black" stroke-width="0.5"/>
<line x1="32.1018" y1="249.772" x2="47.8338" y2="256.782" stroke="black" stroke-width="0.5"/>
<line x1="501.665" y1="209.823" x2="531.644" y2="201.205" stroke="black" stroke-width="0.5"/>
</svg>
