<svg width="177" height="37" viewBox="0 0 177 37" fill="none" xmlns="http://www.w3.org/2000/svg">
<path d="M6.12855 36.0101L5.9432 31.5139L1.44702 31.6993L0.890991 18.2107L5.38717 18.0254L5.20183 13.5292L27.6827 12.6025L27.8681 17.0987L32.3643 16.9133L32.9203 30.4019L28.4241 30.5872L28.6095 35.0834L6.12855 36.0101ZM10.4394 31.3286L23.9279 30.7725L23.3719 17.284L9.88335 17.84L10.4394 31.3286ZM50.349 16.1719L54.8452 15.9866L55.0305 20.4828L50.5343 20.6681L51.0904 34.1567L42.098 34.5274L41.1713 12.0464L50.1636 11.6758L50.349 16.1719ZM68.1484 10.9344L68.3337 15.4306L54.8452 15.9866L54.6598 11.4904L68.1484 10.9344ZM78.0675 33.0446L77.8821 28.5484L73.3859 28.7338L72.8299 15.2452L77.3261 15.0599L77.1407 10.5637L95.1255 9.82232L94.7548 0.82996L103.747 0.459273L105.045 31.9325L78.0675 33.0446ZM82.3783 28.3631L95.8668 27.807L95.3108 14.3185L81.8223 14.8745L82.3783 28.3631ZM114.037 31.5619L113.852 27.0657L109.355 27.251L108.799 13.7625L113.296 13.5771L113.11 9.08095L135.591 8.15423L135.776 12.6504L140.273 12.4651L140.643 21.4574L118.162 22.3842L118.348 26.8803L136.332 26.139L136.518 30.6351L114.037 31.5619ZM117.977 17.888L131.466 17.3319L131.28 12.8358L117.792 13.3918L117.977 17.888ZM158.257 11.7237L162.754 11.5384L162.939 16.0345L158.443 16.2199L158.999 29.7084L150.006 30.0791L149.08 7.5982L158.072 7.22752L158.257 11.7237ZM176.057 6.48614L176.242 10.9823L162.754 11.5384L162.568 7.04217L176.057 6.48614Z" fill="black" fill-opacity="0.5"/>
</svg>
