<svg width="274" height="98" viewBox="0 0 274 98" fill="none" xmlns="http://www.w3.org/2000/svg">
<path d="M4.00029 15.9999L126.494 42.5L125 86L2.24328 39.3382L4.00029 15.9999Z" fill="#D69EB9" stroke="#995B79" stroke-width="3"/>
<path d="M127.101 11.7709L273.5 19.9999L126.802 43.2122L2.70714 15.0255L127.101 11.7709Z" fill="#FAB7D7" stroke="#995B79" stroke-width="3"/>
<path d="M126.407 44.4475L272 20.6575L271.818 42.4053L126.063 85.5023L126.407 44.4475Z" fill="#D980AC" stroke="#995B79" stroke-width="3"/>
<path d="M126.493 44.0616L272 21L270.491 37.0843L131.001 72.532L126.493 44.0616Z" fill="#D980AC" stroke="#995B79" stroke-width="3"/>
<line y1="-0.5" x2="6.22401" y2="-0.5" transform="matrix(-0.831135 -0.556071 0.195752 -0.980653 124.744 37.0503)" stroke="#325C6D"/>
<path d="M88.0364 54.8602L84 48" stroke="#325C6D"/>
<line y1="-0.5" x2="9.37427" y2="-0.5" transform="matrix(-0.25835 0.966051 -0.744631 -0.667476 231.328 34.3881)" stroke="#325C6D"/>
</svg>
