<svg width="320" height="192" viewBox="0 0 320 192" fill="none" xmlns="http://www.w3.org/2000/svg">
<path d="M28.2041 145.308H242.988V189L28.2041 176.105V145.308Z" fill="#A59DC6" stroke="#52487D" stroke-width="3"/>
<path d="M118.963 130.413H297.227L242.988 145.308H28.2041L118.963 130.413Z" fill="#B9AAF3" stroke="#52487D" stroke-width="3"/>
<path d="M242.988 145.261L296 131L297.227 159.541L242.988 189V145.261Z" fill="#8071BB" stroke="#52487D" stroke-width="3"/>
<path d="M242.988 145.261L295.419 131.5V150.273L248.051 174.436L242.988 145.261Z" fill="#8071BB" stroke="#52487D" stroke-width="3"/>
<line y1="-0.5" x2="8.75554" y2="-0.5" transform="matrix(-0.372468 -0.928045 0.596585 -0.80255 76.5913 167.761)" stroke="#325C6D"/>
<line y1="-0.5" x2="9.64165" y2="-0.5" transform="matrix(-0.199593 0.979879 -0.825858 -0.563878 277.094 147.625)" stroke="#325C6D"/>
<path d="M313.504 86.6064L191.611 120.606L191.611 160.106L315.809 110.182L313.504 86.6064Z" fill="#91C36A" stroke="#6C8F50" stroke-width="3"/>
<path d="M190.385 91.1133L44.5039 108.606L190.987 119.605L314.881 85.863L190.385 91.1133Z" fill="#CBF2AC" stroke="#6C8F50" stroke-width="3"/>
<path d="M191.775 120.648L45.5038 109.444L45.8724 130.097L192.471 159.636L191.775 120.648Z" fill="#B7D79E" stroke="#6C8F50" stroke-width="3"/>
<path d="M191.562 119.879L45.8653 109.144L48.5773 121.972L187.219 144.23L191.562 119.879Z" fill="#B7D79E" stroke="#6C8F50" stroke-width="3"/>
<line y1="-0.5" x2="9.46085" y2="-0.5" transform="matrix(0.240387 -0.970677 0.769465 0.638689 268.049 123.737)" stroke="#325C6D"/>
<line y1="-0.5" x2="8.87887" y2="-0.5" transform="matrix(0.350962 -0.93639 0.622789 0.78239 73.5039 122.921)" stroke="#325C6D"/>
<path d="M16.7765 70.0642L141.028 86.4555L143.097 129.932L16.9344 93.4679L16.7765 70.0642Z" fill="#D69EB9" stroke="#995B79" stroke-width="3"/>
<path d="M139.118 55.7799L285.7 52.006L141.393 87.1403L15.4081 69.1988L139.118 55.7799Z" fill="#FAB7D7" stroke="#995B79" stroke-width="3"/>
<path d="M141.1 88.4038L284.259 52.7841L285.856 74.4739L144.115 129.349L141.1 88.4038Z" fill="#D980AC" stroke="#995B79" stroke-width="3"/>
<path d="M141.155 88.012L284.287 53.1254L284.099 69.2792L147.976 116.018L141.155 88.012Z" fill="#D980AC" stroke="#995B79" stroke-width="3"/>
<line y1="-0.5" x2="6.22401" y2="-0.5" transform="matrix(-0.873836 -0.486222 0.11488 -0.993379 138.837 81.1674)" stroke="#325C6D"/>
<path d="M103.71 101.92L99.126 95.4131" stroke="#325C6D"/>
<line y1="-0.5" x2="9.37427" y2="-0.5" transform="matrix(-0.178462 0.983947 -0.796735 -0.604329 244.847 69.7954)" stroke="#325C6D"/>
<path d="M297.022 25.8949L82.2384 25.8949V69.5867L297.022 56.6918V25.8949Z" fill="#44829B" stroke="#325C6D" stroke-width="3"/>
<path d="M206.264 11L28 11L82.2384 25.8949L297.022 25.8949L206.264 11Z" fill="#9ED4E9" stroke="#325C6D" stroke-width="3"/>
<path d="M82.2383 25.8473L29.5 11.5L27.9999 40.1278L82.2383 69.5867V25.8473Z" fill="#52A3C4" stroke="#325C6D" stroke-width="3"/>
<path d="M82.2383 25.8473L30 12.5L32.5 31.5L70.5 50.5L82.2383 25.8473Z" fill="#52A3C4" stroke="#325C6D" stroke-width="3"/>
<line y1="-0.5" x2="9.5185" y2="-0.5" transform="matrix(0.227928 0.973678 -0.786734 0.617292 37.7627 22.916)" stroke="#325C6D"/>
<line y1="-0.5" x2="6.64438" y2="-0.5" transform="matrix(0.744331 -0.667811 0.258571 0.965992 140.512 44.9944)" stroke="#325C6D"/>
<line y1="-0.5" x2="5.54818" y2="-0.5" transform="matrix(-0.989714 -0.143063 0.0430865 -0.999071 205.607 18.4136)" stroke="#325C6D"/>
<line y1="-0.5" x2="9.64447" y2="-0.5" transform="matrix(-0.198921 -0.980016 0.826803 -0.562492 285.268 42.4384)" stroke="#325C6D"/>
<path d="M104.129 63.0101L103.943 58.5139L99.447 58.6993L98.891 45.2107L103.387 45.0254L103.202 40.5292L125.683 39.6025L125.868 44.0987L130.364 43.9133L130.92 57.4019L126.424 57.5872L126.609 62.0834L104.129 63.0101ZM108.439 58.3286L121.928 57.7725L121.372 44.284L107.883 44.84L108.439 58.3286ZM148.349 43.1719L152.845 42.9866L153.031 47.4828L148.534 47.6681L149.09 61.1567L140.098 61.5274L139.171 39.0464L148.164 38.6758L148.349 43.1719ZM166.148 37.9344L166.334 42.4306L152.845 42.9866L152.66 38.4904L166.148 37.9344ZM176.067 60.0446L175.882 55.5484L171.386 55.7338L170.83 42.2452L175.326 42.0599L175.141 37.5637L193.125 36.8223L192.755 27.83L201.747 27.4593L203.045 58.9325L176.067 60.0446ZM180.378 55.3631L193.867 54.807L193.311 41.3185L179.822 41.8745L180.378 55.3631ZM212.037 58.5619L211.852 54.0657L207.355 54.251L206.799 40.7625L211.296 40.5771L211.11 36.0809L233.591 35.1542L233.776 39.6504L238.273 39.4651L238.643 48.4574L216.162 49.3842L216.348 53.8803L234.332 53.139L234.518 57.6351L212.037 58.5619ZM215.977 44.888L229.466 44.3319L229.28 39.8358L215.792 40.3918L215.977 44.888ZM256.257 38.7237L260.754 38.5384L260.939 43.0345L256.443 43.2199L256.999 56.7084L248.006 57.0791L247.08 34.5982L256.072 34.2275L256.257 38.7237ZM274.057 33.4861L274.242 37.9823L260.754 38.5384L260.568 34.0422L274.057 33.4861Z" fill="black" fill-opacity="0.5"/>
<path d="M33.605 170.019L33.7858 166.899L30.666 166.719L31.2085 157.359L34.3283 157.54L34.5091 154.42L53.2277 155.505L53.0468 158.625L37.448 157.721L36.9055 167.08L52.5044 167.984L52.3235 171.104L33.605 170.019ZM58.5631 171.466L58.7439 168.346L55.6241 168.165L56.1666 158.806L59.2864 158.987L59.4672 155.867L75.066 156.771L74.8852 159.891L78.005 160.072L77.4625 169.431L74.3427 169.25L74.1619 172.37L58.5631 171.466ZM61.8637 168.527L71.223 169.069L71.7654 159.71L62.4061 159.168L61.8637 168.527ZM80.4014 172.732L81.3055 157.133L100.024 158.218L99.8433 161.337L102.963 161.518L102.24 173.997L96.0002 173.636L96.7235 161.157L93.6038 160.976L92.8805 173.455L86.6409 173.093L87.3642 160.614L84.2445 160.433L83.5212 172.912L80.4014 172.732ZM108.479 174.359L108.66 171.239L105.54 171.058L106.083 161.699L109.203 161.88L109.383 158.76L124.982 159.664L124.801 162.784L127.921 162.965L127.56 169.204L111.961 168.3L111.78 171.42L124.259 172.143L124.078 175.263L108.479 174.359ZM112.142 165.181L121.501 165.723L121.682 162.603L112.322 162.061L112.142 165.181Z" fill="#433A68"/>
<path d="M145.605 177.019L145.786 173.899L142.666 173.719L143.208 164.359L146.328 164.54L146.509 161.42L162.108 162.324L161.927 165.444L165.047 165.625L164.504 174.984L161.384 174.804L161.204 177.923L145.605 177.019ZM148.905 174.08L158.265 174.623L158.807 165.263L149.448 164.721L148.905 174.08ZM176.802 178.827L176.983 175.708L173.863 175.527L174.044 172.407L170.924 172.226L171.467 162.867L177.706 163.229L177.164 172.588L183.404 172.95L183.946 163.59L190.186 163.952L189.643 173.311L186.523 173.13L186.342 176.25L183.223 176.069L183.042 179.189L176.802 178.827ZM195.521 179.912L195.702 176.793L192.582 176.612L193.124 167.253L196.244 167.433L196.425 164.314L212.024 165.218L211.843 168.337L214.963 168.518L214.601 174.758L199.002 173.854L198.822 176.973L211.301 177.697L211.12 180.817L195.521 179.912ZM199.183 170.734L208.542 171.276L208.723 168.157L199.364 167.614L199.183 170.734ZM227.442 169.242L230.562 169.422L230.381 172.542L227.261 172.361L226.719 181.721L220.479 181.359L221.383 165.76L227.623 166.122L227.442 169.242ZM240.102 166.845L239.921 169.965L230.562 169.422L230.742 166.303L240.102 166.845Z" fill="#433A68"/>
<path d="M24.5936 94.1399L25.2631 91.2155L22.3388 90.546L24.3474 81.773L27.2717 82.4425L27.9412 79.5182L39.6386 82.1963L40.9776 76.3476L46.8263 77.6867L42.1396 98.157L24.5936 94.1399ZM28.1875 91.8851L36.9605 93.8936L38.9691 85.1206L30.1961 83.1121L28.1875 91.8851ZM47.9883 99.4961L48.6578 96.5717L45.7335 95.9022L47.7421 87.1292L50.6664 87.7987L51.3359 84.8744L65.9576 88.222L65.2881 91.1463L68.2124 91.8159L66.8734 97.6645L52.2517 94.3169L51.5822 97.2413L63.2795 99.9194L62.61 102.844L47.9883 99.4961ZM52.9212 91.3926L61.6942 93.4012L62.3637 90.4768L53.5907 88.4683L52.9212 91.3926ZM71.383 104.852L72.0525 101.928L69.1282 101.258L69.7977 98.3341L72.722 99.0036L73.3916 96.0793L85.0889 98.7574L85.7584 95.833L74.0611 93.1549L74.7306 90.2306L89.3523 93.5782L88.6828 96.5025L91.6071 97.1721L88.929 108.869L71.383 104.852ZM74.9768 102.597L83.7499 104.606L84.4194 101.682L75.6464 99.6731L74.9768 102.597ZM94.7777 110.208L95.4472 107.284L101.296 108.623L104.643 94.0015L101.719 93.332L102.389 90.4076L111.162 92.4162L107.145 109.962L112.993 111.301L112.324 114.226L94.7777 110.208ZM115.248 114.895L115.918 111.971L130.539 115.318L131.209 112.394L119.511 109.716L120.181 106.792L117.257 106.122L117.926 103.198L120.85 103.867L121.52 100.943L136.142 104.291L135.472 107.215L123.775 104.537L123.105 107.461L134.803 110.139L134.133 113.064L137.057 113.733L136.388 116.657L133.464 115.988L132.794 118.912L115.248 114.895Z" fill="#310119" fill-opacity="0.5"/>
<path d="M199.074 145.12L198.38 142.98L196.24 143.674L194.157 137.254L196.297 136.559L195.603 134.419L208.444 130.253L209.139 132.394L198.438 135.865L200.52 142.286L211.221 138.814L211.916 140.955L199.074 145.12ZM216.196 139.566L215.502 137.426L213.362 138.12L211.279 131.699L213.419 131.005L212.725 128.865L223.426 125.394L224.12 127.534L226.26 126.84L228.343 133.26L226.203 133.954L226.897 136.095L216.196 139.566ZM217.642 136.731L224.063 134.649L221.98 128.228L215.559 130.311L217.642 136.731ZM231.178 134.706L227.706 124.005L240.547 119.839L241.242 121.98L243.382 121.285L246.159 129.846L241.879 131.235L239.101 122.674L232.681 124.757L235.458 133.318L231.178 134.706ZM254.72 127.069L251.943 118.508L247.662 119.897L246.968 117.757L251.248 116.368L249.86 112.088L254.14 110.699L255.529 114.98L259.809 113.591L260.504 115.731L256.223 117.12L259 125.681L254.72 127.069ZM267.561 122.904L266.867 120.763L264.727 121.458L264.032 119.317L266.173 118.623L265.478 116.483L274.039 113.706L273.345 111.566L264.784 114.343L264.09 112.203L274.791 108.731L275.485 110.871L277.625 110.177L280.402 118.738L267.561 122.904ZM269.007 120.069L275.428 117.986L274.733 115.846L268.313 117.929L269.007 120.069ZM284.683 117.349L283.988 115.209L281.848 115.903L279.765 109.483L281.906 108.789L281.211 106.648L294.053 102.483L294.747 104.623L284.046 108.094L286.129 114.515L296.83 111.044L297.524 113.184L284.683 117.349ZM306.085 110.407L303.308 101.846L299.027 103.234L298.333 101.094L302.613 99.7057L301.225 95.4253L305.505 94.0367L306.894 98.3172L311.174 96.9286L311.869 99.0688L307.588 100.457L310.365 109.018L306.085 110.407Z" fill="#070C04" fill-opacity="0.5"/>
</svg>
