<svg width="322" height="193" viewBox="0 0 322 193" fill="none" xmlns="http://www.w3.org/2000/svg">
<path d="M28.2041 146.308H242.988V190L28.2041 177.105V146.308Z" fill="#A59DC6" stroke="#52487D" stroke-width="3"/>
<path d="M118.963 131.413H297.227L242.988 146.308H28.2041L118.963 131.413Z" fill="#B9AAF3" stroke="#52487D" stroke-width="3"/>
<path d="M242.988 146.261L296 132L297.227 160.541L242.988 190V146.261Z" fill="#8071BB" stroke="#52487D" stroke-width="3"/>
<path d="M242.988 146.261L295.419 132.5V151.273L248.051 175.436L242.988 146.261Z" fill="#8071BB" stroke="#52487D" stroke-width="3"/>
<line y1="-0.5" x2="8.75554" y2="-0.5" transform="matrix(-0.372468 -0.928045 0.596585 -0.80255 76.5913 168.761)" stroke="#325C6D"/>
<line y1="-0.5" x2="9.64165" y2="-0.5" transform="matrix(-0.199593 0.979879 -0.825858 -0.563878 277.094 148.625)" stroke="#325C6D"/>
<path d="M272.504 84.6064L150.611 118.606L150.611 158.106L274.809 108.182L272.504 84.6064Z" fill="#91C36A" stroke="#6C8F50" stroke-width="3"/>
<path d="M149.385 89.1133L3.5039 106.606L149.987 117.605L273.881 83.863L149.385 89.1133Z" fill="#CBF2AC" stroke="#6C8F50" stroke-width="3"/>
<path d="M150.775 118.648L4.50379 107.444L4.87236 128.097L151.471 157.636L150.775 118.648Z" fill="#B7D79E" stroke="#6C8F50" stroke-width="3"/>
<path d="M150.562 117.879L4.86534 107.144L7.57735 119.972L146.219 142.23L150.562 117.879Z" fill="#B7D79E" stroke="#6C8F50" stroke-width="3"/>
<line y1="-0.5" x2="9.46085" y2="-0.5" transform="matrix(0.240387 -0.970677 0.769465 0.638689 227.049 121.737)" stroke="#325C6D"/>
<line y1="-0.5" x2="8.87887" y2="-0.5" transform="matrix(0.350962 -0.93639 0.622789 0.78239 32.5039 120.921)" stroke="#325C6D"/>
<path d="M52.0003 47.9999L174.494 74.5L173 118L50.2433 71.3382L52.0003 47.9999Z" fill="#D69EB9" stroke="#995B79" stroke-width="3"/>
<path d="M175.101 43.7709L321.5 51.9999L174.802 75.2122L50.7071 47.0255L175.101 43.7709Z" fill="#FAB7D7" stroke="#995B79" stroke-width="3"/>
<path d="M174.407 76.4475L320 52.6575L319.818 74.4053L174.063 117.502L174.407 76.4475Z" fill="#D980AC" stroke="#995B79" stroke-width="3"/>
<path d="M174.493 76.0616L320 53L318.491 69.0843L179.001 104.532L174.493 76.0616Z" fill="#D980AC" stroke="#995B79" stroke-width="3"/>
<line y1="-0.5" x2="6.22401" y2="-0.5" transform="matrix(-0.831135 -0.556071 0.195752 -0.980653 172.744 69.0503)" stroke="#325C6D"/>
<path d="M136.036 86.8602L132 80" stroke="#325C6D"/>
<line y1="-0.5" x2="9.37427" y2="-0.5" transform="matrix(-0.25835 0.966051 -0.744631 -0.667476 279.328 66.3881)" stroke="#325C6D"/>
<path d="M304.82 15.8949L90.0358 15.8949V59.5867L304.82 46.6918V15.8949Z" fill="#44829B" stroke="#325C6D" stroke-width="3"/>
<path d="M304.82 16.226L90.0358 16.226L96.3636 46.0158L300.3 38.0859L304.82 16.226Z" fill="#44829B" stroke="#325C6D" stroke-width="3"/>
<path d="M214.061 1L35.7974 1L90.0358 15.8949L304.82 15.8949L214.061 1Z" fill="#9ED4E9" stroke="#325C6D" stroke-width="3"/>
<path d="M90.0356 15.8473L35.7972 1V30.1278L90.0356 59.5867V15.8473Z" fill="#52A3C4" stroke="#325C6D" stroke-width="3"/>
<line y1="-0.5" x2="9.5185" y2="-0.5" transform="matrix(0.227928 0.973678 -0.786734 0.617292 45.5601 12.916)" stroke="#325C6D"/>
<line y1="-0.5" x2="6.64438" y2="-0.5" transform="matrix(0.744331 -0.667811 0.258571 0.965992 148.31 34.9944)" stroke="#325C6D"/>
<line y1="-0.5" x2="5.54818" y2="-0.5" transform="matrix(-0.989714 -0.143063 0.0430865 -0.999071 213.404 8.41357)" stroke="#325C6D"/>
<line y1="-0.5" x2="9.64447" y2="-0.5" transform="matrix(-0.198921 -0.980016 0.826803 -0.562492 293.065 32.4384)" stroke="#325C6D"/>
</svg>
