<svg width="194" height="50" viewBox="0 0 194 50" fill="none" xmlns="http://www.w3.org/2000/svg">
<path fill-rule="evenodd" clip-rule="evenodd" d="M25 0C11.1929 0 0 11.1929 0 25C0 38.8071 11.1929 50 25 50C38.8071 50 50 38.8071 50 25C50 11.1929 38.8071 0 25 0ZM19.5034 11.7472C20.9257 11.6825 21.3801 11.6667 25.0012 11.6667H24.9971C28.6193 11.6667 29.0721 11.6825 30.4944 11.7472C31.9138 11.8122 32.8833 12.0369 33.7333 12.3667C34.6111 12.707 35.3527 13.1625 36.0944 13.9042C36.8361 14.6453 37.2917 15.3892 37.6333 16.2662C37.9611 17.1139 38.1861 18.0828 38.2528 19.5023C38.3167 20.9245 38.3333 21.379 38.3333 25.0001C38.3333 28.6213 38.3167 29.0746 38.2528 30.4969C38.1861 31.9158 37.9611 32.8849 37.6333 33.733C37.2917 34.6097 36.8361 35.3536 36.0944 36.0947C35.3536 36.8364 34.6108 37.293 33.7341 37.6336C32.8858 37.9633 31.9158 38.188 30.4963 38.2531C29.0741 38.3178 28.621 38.3336 24.9996 38.3336C21.3787 38.3336 20.9245 38.3178 19.5023 38.2531C18.0831 38.188 17.1139 37.9633 16.2656 37.6336C15.3892 37.293 14.6453 36.8364 13.9045 36.0947C13.1631 35.3536 12.7075 34.6097 12.3667 33.7327C12.0372 32.8849 11.8125 31.916 11.7472 30.4966C11.6828 29.0743 11.6667 28.6213 11.6667 25.0001C11.6667 21.379 11.6833 20.9243 11.7469 19.502C11.8108 18.0831 12.0358 17.1139 12.3664 16.2659C12.7081 15.3892 13.1636 14.6453 13.9053 13.9042C14.6464 13.1628 15.3903 12.7072 16.2673 12.3667C17.1151 12.0369 18.084 11.8122 19.5034 11.7472Z" fill="#F2F2F2"/>
<path fill-rule="evenodd" clip-rule="evenodd" d="M23.8053 14.0695C24.0376 14.0691 24.2875 14.0692 24.5571 14.0694L25.0015 14.0695C28.5615 14.0695 28.9835 14.0823 30.3893 14.1462C31.6893 14.2056 32.3949 14.4228 32.8649 14.6053C33.4871 14.847 33.9307 15.1359 34.3971 15.6026C34.8638 16.0692 35.1527 16.5137 35.3949 17.1359C35.5774 17.6054 35.7949 18.3109 35.8541 19.6109C35.918 21.0165 35.9319 21.4387 35.9319 24.9971C35.9319 28.5555 35.918 28.9777 35.8541 30.3833C35.7946 31.6833 35.5774 32.3889 35.3949 32.8583C35.1532 33.4805 34.8638 33.9236 34.3971 34.39C33.9305 34.8567 33.4874 35.1456 32.8649 35.3872C32.3954 35.5706 31.6893 35.7872 30.3893 35.8467C28.9837 35.9106 28.5615 35.9244 25.0015 35.9244C21.4412 35.9244 21.0192 35.9106 19.6136 35.8467C18.3136 35.7867 17.6081 35.5694 17.1378 35.3869C16.5155 35.1453 16.0711 34.8564 15.6044 34.3897C15.1378 33.923 14.8489 33.4797 14.6066 32.8572C14.4241 32.3877 14.2066 31.6822 14.1475 30.3822C14.0836 28.9766 14.0708 28.5544 14.0708 24.9938C14.0708 21.4332 14.0836 21.0132 14.1475 19.6076C14.2069 18.3076 14.4241 17.602 14.6066 17.132C14.8483 16.5098 15.1378 16.0653 15.6044 15.5987C16.0711 15.132 16.5155 14.8431 17.1378 14.6009C17.6078 14.4176 18.3136 14.2009 19.6136 14.1412C20.8436 14.0856 21.3203 14.0689 23.8053 14.0662V14.0695ZM32.1188 16.2834C31.2354 16.2834 30.5187 16.9992 30.5187 17.8829C30.5187 18.7662 31.2354 19.4829 32.1188 19.4829C33.0021 19.4829 33.7188 18.7662 33.7188 17.8829C33.7188 16.9995 33.0021 16.2829 32.1188 16.2829V16.2834ZM18.1542 25.0002C18.1542 21.2188 21.2199 18.153 25.0012 18.1529C28.7826 18.1529 31.8477 21.2187 31.8477 25.0002C31.8477 28.7816 28.7829 31.8461 25.0015 31.8461C21.22 31.8461 18.1542 28.7816 18.1542 25.0002Z" fill="#F2F2F2"/>
<path d="M25.0011 20.5557C27.4556 20.5557 29.4456 22.5454 29.4456 25.0002C29.4456 27.4546 27.4556 29.4446 25.0011 29.4446C22.5464 29.4446 20.5566 27.4546 20.5566 25.0002C20.5566 22.5454 22.5464 20.5557 25.0011 20.5557V20.5557Z" fill="#F2F2F2"/>
<path fill-rule="evenodd" clip-rule="evenodd" d="M169 0C155.193 0 144 11.1929 144 25C144 38.8071 155.193 50 169 50C182.807 50 194 38.8071 194 25C194 11.1929 182.807 0 169 0ZM168.304 21.1854L168.251 20.3203C168.094 18.0782 169.475 16.0303 171.661 15.2359C172.466 14.9534 173.83 14.9181 174.721 15.1653C175.071 15.2712 175.736 15.6243 176.208 15.9421L177.065 16.5247L178.009 16.2245C178.534 16.0656 179.233 15.8008 179.548 15.6243C179.845 15.4654 180.107 15.3771 180.107 15.4301C180.107 15.7302 179.46 16.7542 178.918 17.3191C178.184 18.1135 178.394 18.1842 179.88 17.6545C180.772 17.3544 180.789 17.3544 180.615 17.6898C180.51 17.8664 179.968 18.4843 179.39 19.0492C178.411 20.0202 178.359 20.1261 178.359 20.9382C178.359 22.1917 177.764 24.8045 177.17 26.2345C176.068 28.9179 173.707 31.6896 171.346 33.0843C168.024 35.0439 163.6 35.5382 159.875 34.3907C158.633 34.0023 156.5 33.0137 156.5 32.8371C156.5 32.7842 157.147 32.7136 157.934 32.6959C159.578 32.6606 161.221 32.2016 162.62 31.3895L163.565 30.8246L162.481 30.4538C160.942 29.9242 159.56 28.7061 159.21 27.5585C159.106 27.1878 159.141 27.1701 160.12 27.1701L161.134 27.1525L160.277 26.7464C159.263 26.2345 158.336 25.3694 157.881 24.4867C157.549 23.8512 157.13 22.2446 157.252 22.121C157.287 22.0681 157.654 22.174 158.074 22.3152C159.28 22.7566 159.438 22.6507 158.738 21.9092C157.427 20.5675 157.025 18.5725 157.654 16.6835L157.951 15.8361L159.106 16.9837C161.466 19.2964 164.247 20.6734 167.429 21.0794L168.304 21.1854Z" fill="#F2F2F2"/>
<path d="M122 25C122 11.1914 110.809 0 97 0C83.1914 0 72 11.1914 72 25C72 37.4805 81.1406 47.8223 93.0938 49.6973V32.2266H86.7461V25H93.0938V19.4922C93.0938 13.2275 96.8242 9.76562 102.537 9.76562C105.271 9.76562 108.133 10.2539 108.133 10.2539V16.4062H104.979C101.873 16.4062 100.906 18.335 100.906 20.3125V25H107.84L106.731 32.2266H100.906V49.6973C112.859 47.8223 122 37.4805 122 25Z" fill="#F2F2F2"/>
</svg>
